<svg width="60" height="63" viewBox="0 0 60 63" fill="none" xmlns="http://www.w3.org/2000/svg">
<path d="M21.3482 62.0275C9.89542 62.0275 1.89206 53.6891 1.89206 41.7442V32.6155L0.803307 15.8079C0.703854 14.4208 1.06503 13.1855 1.81354 12.3218C2.42596 11.6152 3.2844 11.2069 4.2894 11.1336C4.39409 11.1284 4.49878 11.1232 4.59823 11.1232C6.72862 11.1232 8.22042 12.7196 8.39315 15.1903C8.39315 15.2112 8.39839 15.2374 8.39839 15.2583L10.4189 27.8156C10.4817 28.1925 10.8062 28.4751 11.1883 28.4751C16.3913 28.5013 23.3321 29.1451 29.294 30.1553C29.4058 30.1749 29.5205 30.1695 29.63 30.1396C29.7394 30.1098 29.841 30.0562 29.9274 29.9826C30.1053 29.836 30.2048 29.6214 30.21 29.3911L30.5974 4.8105C30.7073 2.82144 31.9007 0.780029 34.3138 0.780029C34.3923 0.780029 34.4708 0.780029 34.5546 0.785264C35.659 0.842842 36.575 1.31917 37.1979 2.15144C37.8051 2.968 38.1035 4.08815 38.0354 5.30253L37.7894 30.9667C37.7789 31.9821 37.847 32.8825 37.9988 33.7252C38.7054 37.6667 40.5374 38.5146 41.7466 39.08C42.27 39.326 42.5736 39.4725 42.7097 39.7343C43.631 41.5087 42.8667 46.1568 39.9983 50.873C37.9674 54.2282 32.0682 62.0275 21.3482 62.0275Z" fill="url(#paint0_radial)"/>
<path d="M34.324 1.57031C34.3868 1.57031 34.4549 1.57031 34.5229 1.57555C35.3081 1.61742 35.9467 1.90531 36.423 2.43398C37.0197 3.09875 37.3285 4.12992 37.2657 5.26578V5.33906L37.0197 30.9666C37.0092 32.0291 37.0825 32.9766 37.2448 33.8716C38.0247 38.2109 40.1603 39.2055 41.4323 39.797C41.6521 39.9016 41.9505 40.0377 42.0342 40.1162C42.6938 41.4301 42.296 45.6071 39.3385 50.4751C37.3652 53.7099 31.6702 61.2422 21.348 61.2422C15.7786 61.2422 11.0467 59.2793 7.6601 55.5681C4.44619 52.0454 2.68221 47.1408 2.68221 41.7441V32.6154C2.68221 32.584 2.68221 32.5473 2.67697 32.5159L1.58822 15.7502C1.50447 14.5934 1.80283 13.5309 2.41002 12.8399C2.89158 12.2851 3.54065 11.9763 4.34674 11.9239C4.43572 11.9187 4.51947 11.9134 4.60322 11.9134C6.64986 11.9134 7.5083 13.7141 7.61299 15.253L7.62869 15.3891L9.64916 27.9463C9.70746 28.314 9.89499 28.6488 10.178 28.8906C10.4611 29.1323 10.8211 29.2653 11.1933 29.2654C16.3544 29.2916 23.2481 29.9302 29.1734 30.9352C29.2624 30.9509 29.3461 30.9561 29.4351 30.9561C29.8473 30.9568 30.2432 30.7952 30.5371 30.5062C30.831 30.2172 30.9992 29.8241 31.0054 29.412L31.3928 4.86273C31.4817 3.3343 32.3035 1.57031 34.324 1.57031ZM34.324 0C31.6597 0 29.9742 2.09375 29.8224 4.79992L29.4351 29.3805C23.8867 28.4436 16.8674 27.716 11.1985 27.6898L9.17807 15.1326C8.9844 12.4159 7.26229 10.3327 4.59799 10.3327C4.4776 10.3327 4.35721 10.3379 4.23158 10.3431C1.36314 10.542 -0.18623 13.0074 0.0179108 15.8497L1.10666 32.6049V41.7337C1.10666 53.3226 8.73314 62.802 21.348 62.802C38.0928 62.802 45.9338 44.22 43.4161 39.3625C42.6153 37.8184 39.7311 38.86 38.7837 33.5785C38.6267 32.7201 38.5796 31.8407 38.5848 30.9666L38.8308 5.33906C38.9826 2.55437 37.428 0.162266 34.6014 0.00523449C34.5072 1.19922e-07 34.413 0 34.324 0Z" fill="#EDA600"/>
<path opacity="0.4" d="M21.2534 47.9051C29.2148 47.9051 35.6688 43.108 35.6688 37.1904C35.6688 31.2728 29.2148 26.4756 21.2534 26.4756C13.2919 26.4756 6.83789 31.2728 6.83789 37.1904C6.83789 43.108 13.2919 47.9051 21.2534 47.9051Z" fill="url(#paint1_radial)"/>
<path d="M24.6872 41.9906C23.6351 41.9906 22.7295 41.6399 22.07 40.9699C21.3529 40.2423 20.9655 39.1902 20.9813 38.002L20.5625 27.0203C20.5887 24.8375 22.562 23.0212 24.9594 23.0107C26.1947 23.0107 27.3096 23.4661 28.1209 24.2879C28.8485 25.026 29.2463 25.9891 29.2306 26.9993L28.5554 37.9025C28.524 40.3156 26.9432 41.9801 24.7029 41.9906H24.6872Z" fill="url(#paint2_radial)"/>
<path d="M24.9745 22.2256V23.7959C25.9795 23.7959 26.8955 24.1675 27.5602 24.8375C28.1308 25.4186 28.4448 26.1671 28.4448 26.9522L27.7696 37.8502C27.7696 37.8764 27.7696 37.9025 27.7644 37.9287C27.7434 39.5514 26.7908 41.1897 24.6813 41.2002C23.8281 41.2002 23.1372 40.9332 22.6242 40.415C22.0537 39.8393 21.7501 38.9861 21.7605 38.0072V37.9287L21.347 27.0307C21.3889 25.2511 23.0011 23.8011 24.964 23.7959L24.9745 22.2256ZM24.9745 22.2256H24.9535C22.127 22.2361 19.8081 24.3979 19.7715 27.0464L20.1902 37.9915C20.1588 40.6349 21.8705 42.7757 24.6813 42.7757H24.7023C27.5288 42.7653 29.3033 40.6035 29.3347 37.9549L30.0152 27.0098C30.0518 24.3612 27.7958 22.2256 24.9745 22.2256Z" fill="#EDA600"/>
<path d="M15.699 41.2734C13.6314 41.2734 12.0663 39.792 11.8151 37.5831L10.2291 28.58C10.1191 27.5907 10.4227 26.5595 11.0927 25.7273C11.8308 24.8113 12.9562 24.2145 14.1862 24.0889C14.3485 24.0732 14.516 24.0627 14.6783 24.0627C16.9605 24.0627 18.8605 25.6488 19.1013 27.753L19.5777 36.6619C19.7242 37.9391 19.4311 39.0802 18.7559 39.9177C18.1434 40.6767 17.2536 41.1373 16.1858 41.2472C16.0183 41.2681 15.856 41.2734 15.699 41.2734Z" fill="url(#paint3_radial)"/>
<path d="M14.6738 24.8582C16.5373 24.8582 18.0971 26.1249 18.3117 27.8103L18.7933 36.714C18.7933 36.7454 18.7985 36.7768 18.8037 36.8082C18.9189 37.8289 18.6886 38.7607 18.1442 39.4359C17.6679 40.0274 16.9612 40.3885 16.1028 40.4723C15.9667 40.488 15.8306 40.4932 15.6998 40.4932C14.0248 40.4932 12.8052 39.3207 12.5958 37.4992L12.5801 37.405L11.0098 28.5013C10.926 27.69 11.172 26.8839 11.7007 26.2243C12.3079 25.4706 13.2396 24.9785 14.2603 24.8739C14.4016 24.8634 14.5377 24.8582 14.6738 24.8582ZM14.6738 23.2878C14.4854 23.2878 14.2969 23.2983 14.1033 23.314C11.2244 23.6071 9.14109 26.0254 9.45515 28.7211L11.0359 37.6771C11.3238 40.1949 13.1192 42.0583 15.6998 42.0583C15.883 42.0583 16.0714 42.0478 16.2598 42.0321C19.1387 41.739 20.6724 39.3207 20.3636 36.625L19.882 27.669C19.5889 25.1513 17.3172 23.2878 14.6738 23.2878Z" fill="#EDA600"/>
<path d="M52.9677 31.8306C56.8935 32.5529 59.9033 35.034 59.4845 37.8815C59.1652 40.0433 57.5478 41.645 54.4805 41.2368C49.1937 40.5301 45.0743 42.9746 43.3208 46.6543C41.1276 51.2606 38.1492 55.3539 36.8459 55.8407C31.2241 57.9449 26.2044 53.883 26.9581 47.3715C27.759 40.4359 35.9246 35.5732 38.055 34.5525C41.1223 33.0764 46.8173 30.7052 52.9677 31.8306Z" fill="url(#paint4_radial)"/>
<path d="M52.9683 31.8302C51.8481 31.6261 50.7437 31.5371 49.6706 31.5371C44.8341 31.5371 40.568 33.343 38.0503 34.5521C37.0924 35.0127 33.7843 37.1693 31.6016 39.0275C32.973 39.352 38.0241 36.3056 38.7308 35.9654C40.2016 35.2587 44.677 33.1074 49.6706 33.1074C50.6966 33.1074 51.712 33.1964 52.6856 33.3744C55.8943 33.9606 58.1974 35.8398 57.9305 37.6509C57.7263 39.0327 56.8784 39.7289 55.4023 39.7289C55.1772 39.7289 54.9364 39.7132 54.6852 39.6766C54.0152 39.5876 53.3399 39.5405 52.6856 39.5405C47.9223 39.5405 43.7872 42.0059 41.8976 45.9735C41.1909 47.4548 40.4477 48.9257 39.5787 50.3233C39.1652 50.988 38.736 51.6371 38.2283 52.2338C37.5269 53.0556 36.7888 53.846 36.0403 54.6259C35.6634 55.0185 35.2866 55.4059 34.9097 55.7932C34.716 55.9921 34.5328 56.2172 34.3234 56.3952C34.2292 56.4737 33.9466 56.7773 33.8419 56.7825C34.5642 56.7354 37.1343 58.7454 43.3109 46.6435C44.9492 43.4348 48.2626 41.1055 52.6804 41.1055C53.2614 41.1055 53.8581 41.1474 54.4705 41.2259C54.7951 41.2678 55.1039 41.2887 55.3918 41.2887C57.8624 41.2887 59.1867 39.8022 59.4746 37.8707C59.9038 35.0389 56.8941 32.5526 52.9683 31.8302Z" fill="#EDA600"/>
<defs>
<radialGradient id="paint0_radial" cx="0" cy="0" r="1" gradientUnits="userSpaceOnUse" gradientTransform="translate(21.1796 3.38242) rotate(90.1261) scale(59.8889 26.716)">
<stop stop-color="#FFB300"/>
<stop offset="0.784" stop-color="#FFCA28"/>
<stop offset="1" stop-color="#FFB300"/>
</radialGradient>
<radialGradient id="paint1_radial" cx="0" cy="0" r="1" gradientUnits="userSpaceOnUse" gradientTransform="translate(21.2555 37.1901) scale(15.4681 9.42935)">
<stop offset="0.61" stop-color="#F9A825"/>
<stop offset="0.817" stop-color="#FDAF0F" stop-opacity="0.469"/>
<stop offset="1" stop-color="#FFB300" stop-opacity="0"/>
</radialGradient>
<radialGradient id="paint2_radial" cx="0" cy="0" r="1" gradientUnits="userSpaceOnUse" gradientTransform="translate(24.905 25.8032) rotate(90.3908) scale(15.2437 5.2018)">
<stop offset="0.599" stop-color="#FFCA28"/>
<stop offset="1" stop-color="#FFB300"/>
</radialGradient>
<radialGradient id="paint3_radial" cx="0" cy="0" r="1" gradientUnits="userSpaceOnUse" gradientTransform="translate(14.5071 28.4927) rotate(82.8042) scale(11.3911 4.60368)">
<stop offset="0.599" stop-color="#FFCA28"/>
<stop offset="1" stop-color="#FFB300"/>
</radialGradient>
<radialGradient id="paint4_radial" cx="0" cy="0" r="1" gradientUnits="userSpaceOnUse" gradientTransform="translate(37.6532 24.9531) rotate(163.581) scale(34.6453 36.8171)">
<stop offset="0.465" stop-color="#FFCA28"/>
<stop offset="1" stop-color="#FFB300"/>
</radialGradient>
</defs>
</svg>
