<svg width="64" height="64" viewBox="0 0 64 64" fill="none" xmlns="http://www.w3.org/2000/svg">
<path d="M13.1042 46.1672C18.7678 44.5393 33.4869 39.8597 52.8488 40.9433C53.4613 40.9799 53.5293 41.8593 52.9326 41.9797C43.9452 43.8274 21.2856 48.6116 14.9467 51.1032C13.9365 51.501 12.7954 51.0665 12.3086 50.0929C12.1516 49.7737 11.9841 49.4387 11.8166 49.1089C11.6778 48.8351 11.6013 48.534 11.5926 48.2272C11.5839 47.9204 11.6433 47.6154 11.7664 47.3342C11.8894 47.053 12.0732 46.8026 12.3045 46.6008C12.5358 46.399 12.8089 46.2509 13.1042 46.1672Z" fill="#F44336"/>
<path d="M2.55252 58.2111C11.4562 55.9917 48.8244 46.6274 63.2922 46.7792C63.9203 46.7844 64.0145 47.6795 63.4021 47.8156C52.1482 50.2496 13.351 59.2527 4.45783 63.6077C3.32197 64.1625 1.96103 63.5711 1.56322 62.3724L1.14447 61.1214C0.689079 59.7447 1.36955 58.5042 2.55252 58.2111Z" fill="#F44336" stroke="#F44336" stroke-width="0.125" stroke-miterlimit="10"/>
<path d="M2.31124 13.2112C0.47921 13.9859 0.746163 10.3584 2.01288 9.37438C5.68218 6.52165 14.6539 3.16641 19.8464 1.0936C20.9142 0.669618 21.9611 1.7636 21.4952 2.81571C18.6687 9.20688 10.3617 27.8256 5.19015 44.2981C4.92319 45.1461 3.18538 45.1932 3.0964 44.3034C2.6253 39.4877 5.9753 26.2081 13.0993 10.683C13.3558 10.1281 12.7957 9.53141 12.199 9.66751C10.1105 10.1595 6.90702 11.2745 2.31124 13.2112Z" fill="#F44336" stroke="#F44336" stroke-width="0.125" stroke-miterlimit="10"/>
<path d="M57.4296 3.45905C57.3301 3.43288 56.702 3.26538 56.4665 3.25491C40.7738 2.71054 33.4509 7.69366 33.1892 7.90304C32.2889 8.63062 32.1476 9.94968 32.8751 10.8448C33.4562 11.5619 34.0476 11.6508 34.3617 11.6456C34.4926 11.6404 34.6077 11.7241 34.6444 11.855C35.2882 14.4251 35.3981 18.1048 34.2518 22.418C32.268 29.8612 27.9391 33.9755 25.7041 33.9755C25.5784 33.9755 25.458 33.9598 25.3481 33.9284C24.4373 33.6876 23.5056 32.2481 22.9769 30.2643C22.1866 27.2755 22.3174 23.3601 23.3381 19.5181C24.7252 14.2942 27.2744 10.7139 29.4414 9.04413C30.4359 8.27991 31.2316 7.28538 31.8126 6.17046C31.8178 6.16522 31.8178 6.15476 31.823 6.14952C32.0848 5.64702 33.3044 3.28108 31.8806 3.24968C26.7352 3.24968 21.1187 9.53616 18.7894 18.3037C16.2194 27.9769 18.6167 37.0062 24.1442 38.477C24.6572 38.6131 25.1806 38.6812 25.7145 38.6812C30.8599 38.6812 36.4764 32.3947 38.8057 23.6271C40.1038 18.7487 40.13 14.0377 39.1302 10.3789C39.0098 9.94444 39.2506 9.49429 39.6798 9.34772C41.2449 8.80858 44.2651 8.25897 46.9033 7.8821C47.3168 7.82452 47.5994 8.29561 47.343 8.62538C45.4062 11.1798 43.7836 14.5088 42.7733 18.309C40.2033 27.9821 42.6006 37.0114 48.1281 38.4823C48.6411 38.6184 49.1645 38.6864 49.6984 38.6864C54.8438 38.6864 60.4603 32.3999 62.7896 23.6323C65.3544 13.9592 62.9571 4.92468 57.4296 3.45905ZM58.2305 22.418C56.2519 29.8612 51.9283 33.9755 49.6932 33.9755C49.5676 33.9755 49.4472 33.9598 49.3373 33.9284C48.4265 33.6876 47.4948 32.2481 46.9661 30.2643C46.1757 27.2755 46.3066 23.3601 47.3273 19.5181C49.3058 12.0801 53.6294 7.96061 55.8698 7.96061C55.9954 7.96061 56.1105 7.97632 56.2257 8.00772C58.1415 8.52069 60.3661 14.3832 58.2305 22.418Z" fill="#F44336" stroke="#F44336" stroke-width="0.125" stroke-miterlimit="10"/>
</svg>
