<svg width="63" height="45" viewBox="0 0 63 45" fill="none" xmlns="http://www.w3.org/2000/svg">
<path d="M24.041 9.56269C26.0196 7.82019 31.0289 3.69237 35.2112 2.598C36.2842 2.31644 37.2526 2.18362 38.1634 2.18362C39.786 2.18362 40.9585 2.62456 42.0891 3.04425C43.0994 3.42144 44.1462 3.81456 45.392 3.81456C45.9416 3.81456 46.486 3.74019 47.0566 3.59144C47.7841 3.40019 48.517 2.91144 49.2916 2.39612C50.4223 1.64706 51.7047 0.791748 53.097 0.791748C54.2381 0.791748 55.3688 1.35487 56.557 2.51831L60.2262 6.01394C62.0426 7.868 62.163 10.4021 61.9431 12.1924C61.404 16.5911 58.143 21.7867 54.4318 24.2411L24.041 9.56269Z" fill="url(#paint0_radial)"/>
<path d="M53.0969 1.59375C54.0234 1.59375 54.976 2.08781 56.0229 3.11313L59.6608 6.58219C60.9432 7.905 61.4457 9.75906 61.1578 12.1019C60.6605 16.15 57.7398 20.91 54.3584 23.3325L25.4646 9.37125C27.7625 7.4375 31.8977 4.28188 35.3995 3.36812C36.4097 3.10781 37.31 2.975 38.158 2.975C39.6393 2.975 40.6966 3.36813 41.8116 3.78781C42.8898 4.19156 43.9995 4.60594 45.3866 4.60594C46.0043 4.60594 46.6115 4.52625 47.2501 4.35625C48.1033 4.13313 48.8884 3.6125 49.7207 3.06C50.8147 2.34281 51.9401 1.59375 53.0969 1.59375ZM53.0969 0C50.4797 0 48.454 2.40125 46.8575 2.82094C46.3288 2.95906 45.842 3.0175 45.3919 3.0175C42.9998 3.0175 41.4399 1.38125 38.1632 1.38125C37.2629 1.38125 36.2317 1.50344 35.0121 1.82219C29.427 3.27781 22.6328 9.75906 22.6328 9.75906L54.484 25.1494C60.5297 21.4678 65.8687 10.6569 60.76 5.43469L57.1012 1.94437C55.6303 0.51 54.3008 0 53.0969 0Z" fill="#EDA600"/>
<path d="M32.7099 43.2967C31.8933 43.296 31.104 42.9982 30.4853 42.4573L5.50686 20.0545C2.64366 17.4833 0.879673 14.2692 0.790688 11.4483C0.727876 9.44013 1.49209 7.60731 3.06241 6.00294L6.70553 2.53388C7.89897 1.36513 9.02959 0.802002 10.1707 0.802002C11.563 0.802002 12.8455 1.652 13.9761 2.40638C14.7508 2.92169 15.4836 3.41044 16.2112 3.60169C16.7817 3.75044 17.3261 3.82481 17.8757 3.82481C19.1215 3.82481 20.1631 3.43169 21.1733 3.0545C22.304 2.6295 23.4765 2.19388 25.0991 2.19388C26.0151 2.19388 26.9783 2.332 28.0513 2.60825C33.3747 3.99481 40.0223 10.2901 40.0904 10.3539L54.8513 23.6883C56.3169 24.9633 56.4949 27.1998 55.2648 28.6873L55.1601 28.8148C54.8386 29.2047 54.4365 29.5181 53.9825 29.7329C53.5284 29.9477 53.0334 30.0587 52.5325 30.0579C51.9881 30.0579 51.4437 29.9251 50.9622 29.6701C50.8504 29.6117 50.7267 29.5807 50.601 29.5798C50.4283 29.5798 50.2555 29.6383 50.1142 29.7551C49.8734 29.9517 49.7635 30.2704 49.842 30.5733C50.1194 31.6889 49.8525 32.8736 49.1301 33.7395L49.0255 33.867C48.7046 34.2563 48.3034 34.5694 47.8503 34.7842C47.3972 34.999 46.9031 35.1102 46.403 35.1101C45.6336 35.1101 44.906 34.8551 44.2988 34.377C44.1755 34.2775 44.0253 34.2186 43.8681 34.2082C43.711 34.1977 43.5544 34.2362 43.4194 34.3186C43.142 34.4832 42.9902 34.8073 43.0426 35.1314C43.1996 36.1567 42.9169 37.1926 42.2679 37.9789L42.1632 38.1064C41.8416 38.4962 41.4396 38.8096 40.9855 39.0244C40.5315 39.2393 40.0365 39.3502 39.5355 39.3495C38.8017 39.3503 38.0873 39.1098 37.4994 38.6642C37.3633 38.5579 37.1958 38.5101 37.0335 38.5101C36.9026 38.5101 36.7718 38.542 36.6514 38.6111C36.3844 38.7598 36.2222 39.0573 36.2483 39.3708C36.286 39.8316 36.2337 40.2954 36.0944 40.7357C35.9552 41.176 35.7318 41.5841 35.437 41.9367L35.3323 42.0642C35.0101 42.4511 34.6084 42.7619 34.1554 42.9748C33.7024 43.1877 33.2091 43.2975 32.7099 43.2967Z" fill="url(#paint1_radial)"/>
<path d="M10.1657 1.59375C11.3278 1.59375 12.4531 2.34281 13.5419 3.06531C14.3742 3.61781 15.1593 4.13844 16.0125 4.36156C16.6511 4.53156 17.2583 4.61125 17.876 4.61125C19.2578 4.61125 20.3728 4.19156 21.4458 3.79313C22.5607 3.37344 23.6181 2.98031 25.0994 2.98031C25.9474 2.98031 26.8477 3.10781 27.8579 3.37344C32.9824 4.70687 39.4939 10.8641 39.5567 10.9278C39.5672 10.9384 39.5777 10.9491 39.5881 10.9544L54.3334 24.2728L54.3543 24.2941C55.4797 25.2716 55.621 27.0087 54.6631 28.1669L54.5585 28.2944C54.1739 28.7617 53.644 29.0822 53.0559 29.2029C52.4679 29.3236 51.8569 29.2374 51.3236 28.9584C51.0536 28.8193 50.75 28.7614 50.4486 28.7915C50.1472 28.8216 49.8606 28.9385 49.6224 29.1284C49.1409 29.5162 48.9263 30.1591 49.0781 30.7647C49.2927 31.6306 49.0885 32.5497 48.5285 33.2244L48.4238 33.3519C48.1768 33.6523 47.8678 33.8942 47.5187 34.0603C47.1696 34.2264 46.7889 34.3129 46.4033 34.3134C45.8118 34.3134 45.2517 34.1169 44.7806 33.745C44.5327 33.5486 44.2321 33.4329 43.9183 33.413C43.6044 33.3931 43.292 33.4699 43.0219 33.6334C42.7512 33.7962 42.5347 34.0376 42.4004 34.3264C42.2661 34.6152 42.22 34.9382 42.2681 35.2537C42.3938 36.0506 42.1739 36.8581 41.6662 37.4637L41.5615 37.5912C41.1299 38.1157 40.5172 38.4529 39.8487 38.5338C39.1803 38.6148 38.5065 38.4335 37.9655 38.0269C37.7231 37.8456 37.4347 37.7384 37.1343 37.7177C36.8339 37.697 36.5339 37.7637 36.2696 37.91C36.0059 38.0583 35.7898 38.2803 35.6469 38.5497C35.504 38.819 35.4403 39.1244 35.4635 39.4294C35.521 40.1572 35.296 40.8637 34.8353 41.4216L34.7306 41.5491C34.4819 41.8502 34.1711 42.0923 33.8202 42.2584C33.4694 42.4246 33.0869 42.5106 32.6997 42.5106C32.0716 42.5106 31.4644 42.2822 31.0038 41.8837L6.01486 19.465C3.31393 17.0372 1.64939 14.0356 1.56564 11.4325C1.50807 9.63687 2.17283 8.05375 3.59135 6.59281L7.25018 3.10781C8.28658 2.08781 9.23924 1.59375 10.1657 1.59375ZM10.1657 0C8.96182 0 7.63229 0.51 6.16143 1.94969L2.5026 5.44C-2.60615 10.6622 1.06838 17.1381 4.98369 20.6497L29.9726 43.0684C30.7343 43.7332 31.7056 44.0988 32.7102 44.0991C33.9088 44.0991 35.1023 43.5784 35.9398 42.5691L36.0445 42.4416C36.771 41.5693 37.1268 40.4401 37.0338 39.3019C37.7588 39.8481 38.6381 40.1425 39.541 40.1412C40.7397 40.1412 41.9279 39.6206 42.7654 38.6112L42.8701 38.4837C43.2658 38.0062 43.5552 37.4477 43.7187 36.8462C43.8822 36.2448 43.9159 35.6146 43.8175 34.9987C44.5564 35.5835 45.4664 35.9013 46.4033 35.9019C47.602 35.9019 48.7902 35.3812 49.6277 34.3772L49.7324 34.2497C50.1708 33.7201 50.4784 33.0919 50.6295 32.4174C50.7807 31.7429 50.771 31.0415 50.6013 30.3716C51.2085 30.6903 51.868 30.8444 52.5275 30.8444C53.7262 30.8444 54.9144 30.3291 55.7519 29.3197L55.8566 29.1922C57.3693 27.3647 57.1495 24.6341 55.3646 23.0828L40.6298 9.76437C40.6298 9.76437 33.8303 3.27781 28.2505 1.8275C27.0361 1.50875 26.0049 1.38656 25.0994 1.38656C21.8279 1.38656 20.2681 3.02281 17.8707 3.02281C17.4153 3.02281 16.9338 2.96437 16.4051 2.82625C14.8086 2.40125 12.7829 0 10.1657 0Z" fill="#EDA600"/>
<path d="M13.7831 34.3768C12.6787 34.3768 11.6527 33.819 11.0298 32.8893C9.98819 31.3327 10.3755 29.1918 11.8987 28.124L17.6461 24.0918C18.1973 23.7015 18.8531 23.492 19.5252 23.4915C20.6297 23.4915 21.6556 24.0493 22.2785 24.979C23.3201 26.5355 22.9328 28.6765 21.4096 29.7443L15.6623 33.7765C15.1074 34.1696 14.4583 34.3768 13.7831 34.3768Z" fill="url(#paint2_radial)"/>
<path d="M19.5239 24.2935C20.3667 24.2935 21.1518 24.7185 21.6281 25.4303C22.429 26.631 22.1306 28.2725 20.9634 29.0906L15.216 33.1228C14.7921 33.4203 14.2948 33.5797 13.7818 33.5797C12.9391 33.5797 12.1539 33.1547 11.6776 32.4428C10.8767 31.2422 11.1751 29.6006 12.3424 28.7825L18.0897 24.7503C18.5137 24.4528 19.011 24.2935 19.5239 24.2935ZM19.5239 22.6997C18.7231 22.6997 17.9117 22.9388 17.1946 23.4381L11.4473 27.4703C9.56815 28.7878 9.08659 31.4122 10.3742 33.3353C10.7507 33.9009 11.2584 34.3638 11.8526 34.6834C12.4468 35.003 13.1093 35.1695 13.7818 35.1681C14.5827 35.1681 15.394 34.9291 16.1111 34.4297L21.8585 30.3975C23.7376 29.08 24.2192 26.4556 22.9315 24.5325C22.1306 23.3425 20.8378 22.6997 19.5239 22.6997Z" fill="#EDA600"/>
<path d="M25.68 43.6794C24.8634 43.6794 24.0782 43.3712 23.4658 42.8134C22.0892 41.5597 21.9636 39.3869 23.1884 37.9737L26.5332 34.1275C26.8449 33.7682 27.2281 33.4802 27.6576 33.2824C28.0871 33.0846 28.5531 32.9815 29.0247 32.98C29.8413 32.98 30.6264 33.2881 31.2389 33.8459C32.6155 35.0997 32.7411 37.2725 31.5163 38.6856L28.1715 42.5319C27.8602 42.8915 27.477 43.1798 27.0474 43.3777C26.6178 43.5755 26.1517 43.6784 25.68 43.6794Z" fill="url(#paint3_radial)"/>
<path d="M29.0286 33.7822C29.6514 33.7822 30.2534 34.016 30.7193 34.441C31.7766 35.4079 31.8708 37.076 30.9286 38.1597L27.5839 42.006C27.3633 42.2622 27.0947 42.4713 26.7937 42.6211C26.4927 42.771 26.1654 42.8586 25.8308 42.8789C25.4961 42.8991 25.1609 42.8517 24.8445 42.7392C24.5281 42.6267 24.2369 42.4515 23.9879 42.2238C22.9305 41.2569 22.8363 39.5888 23.7785 38.505L27.1232 34.6588C27.3611 34.3835 27.6541 34.1629 27.9827 34.0118C28.3112 33.8606 28.6678 33.7824 29.0286 33.7822ZM29.0286 32.1885C27.8927 32.1885 26.7621 32.6666 25.9455 33.6016L22.6007 37.4479C21.088 39.1904 21.2398 41.8572 22.941 43.4032C23.6914 44.0914 24.6671 44.4719 25.6786 44.471C26.8144 44.471 27.945 43.9929 28.7616 43.0579L32.1064 39.2116C33.6191 37.4691 33.4673 34.8022 31.7661 33.2563C31.0157 32.5681 30.04 32.1875 29.0286 32.1885Z" fill="#EDA600"/>
<path d="M9.58387 28.7352C8.42708 28.7352 7.37497 28.1348 6.76778 27.1308C5.80466 25.537 6.28622 23.4386 7.84083 22.4505L11.3426 20.2298C11.7115 19.9948 12.1227 19.8366 12.5524 19.7645C12.982 19.6923 13.4215 19.7076 13.8453 19.8094C14.2691 19.9112 14.6687 20.0976 15.0209 20.3577C15.373 20.6177 15.6707 20.9463 15.8965 21.3242C16.8597 22.918 16.3781 25.0164 14.8235 25.9992L11.3217 28.2198C10.7982 28.5598 10.1963 28.7352 9.58387 28.7352Z" fill="url(#paint4_radial)"/>
<path d="M13.0809 20.5217C13.9603 20.5217 14.7664 20.9786 15.227 21.7489C15.965 22.9708 15.5986 24.5805 14.4052 25.3349L10.9086 27.5502C10.6277 27.7291 10.3144 27.8495 9.98715 27.9041C9.65987 27.9588 9.32513 27.9467 9.0025 27.8685C8.67988 27.7904 8.37584 27.6477 8.10815 27.449C7.84047 27.2502 7.61451 26.9992 7.44348 26.7108C6.70544 25.4889 7.07184 23.8792 8.26528 23.1249L11.7671 20.9042C12.1597 20.6545 12.615 20.5217 13.0809 20.5217ZM13.0809 18.928C12.3429 18.928 11.5996 19.1299 10.9296 19.5549L7.42778 21.7755C5.50677 22.992 4.91005 25.5792 6.10348 27.5449C6.46827 28.1513 6.98042 28.6525 7.59084 29.0004C8.20126 29.3483 8.88949 29.5313 9.58958 29.5317C10.3276 29.5317 11.0709 29.3299 11.7409 28.9049L15.2427 26.6842C17.1637 25.4677 17.7604 22.8805 16.567 20.9149C16.203 20.3076 15.6911 19.8058 15.0805 19.4578C14.4699 19.1098 13.7812 18.9273 13.0809 18.928Z" fill="#EDA600"/>
<path d="M18.6724 40.5498C17.8087 40.5498 16.9921 40.2045 16.3797 39.5776C15.113 38.2814 15.113 36.167 16.3797 34.8655L22.5249 28.5755C23.1373 27.9486 23.9539 27.6033 24.8175 27.6033C25.6812 27.6033 26.4978 27.9486 27.1102 28.5755C27.7214 29.2027 28.0643 30.0493 28.0643 30.9316C28.0643 31.8138 27.7214 32.6604 27.1102 33.2876L20.965 39.5776C20.6657 39.8861 20.3087 40.131 19.9151 40.2979C19.5215 40.4648 19.099 40.5505 18.6724 40.5498Z" fill="url(#paint5_radial)"/>
<path d="M24.8163 28.4001C25.4706 28.4001 26.0882 28.6605 26.5541 29.1386C27.5224 30.1267 27.5224 31.7364 26.5541 32.7298L20.4037 39.0145C19.9378 39.4873 19.3254 39.753 18.6659 39.753C18.0063 39.753 17.3939 39.4927 16.9281 39.0145C15.9597 38.0264 15.9597 36.4167 16.9281 35.4233L23.0732 29.1333C23.5443 28.6605 24.1567 28.4001 24.8163 28.4001ZM24.8163 26.8064C23.7851 26.8064 22.7539 27.2101 21.9635 28.0123L15.8184 34.3023C14.2428 35.912 14.2428 38.5258 15.8184 40.1355C16.1908 40.5191 16.635 40.8234 17.1249 41.0305C17.6148 41.2376 18.1404 41.3433 18.6711 41.3414C19.7023 41.3414 20.7335 40.9376 21.5238 40.1355L27.669 33.8455C29.2446 32.2358 29.2446 29.622 27.669 28.0123C27.2953 27.6305 26.8508 27.3273 26.3612 27.1204C25.8717 26.9134 25.3466 26.8067 24.8163 26.8064Z" fill="#EDA600"/>
<path d="M24.9633 14.5192C23.5919 14.5192 22.8277 14.0358 22.0478 12.6652C21.0794 10.9652 21.6343 9.06329 23.4192 7.91048L35.5263 2.44392C36.0235 2.2686 36.8139 2.16235 37.709 2.16235C40.3471 2.16235 42.8596 2.98579 43.2051 3.95798C43.2208 4.00579 43.2417 4.04829 43.2679 4.09079L47.1257 10.7314C47.1361 10.7739 47.1361 10.7952 47.1361 10.8058C47.11 10.8058 46.8168 11.0077 45.7857 11.0077C44.2991 11.0077 41.9907 10.5774 39.7714 9.88673C39.3107 9.74329 38.803 9.66892 38.2691 9.66892C35.7828 9.66892 32.951 11.2149 30.4542 12.5749C28.9467 13.3983 27.5177 14.1739 26.6121 14.3386C25.9683 14.4608 25.4292 14.5192 24.9633 14.5192Z" fill="url(#paint6_linear)"/>
<path d="M37.7147 2.95923C40.3162 2.95923 42.2739 3.78267 42.4728 4.22892C42.5042 4.32454 42.546 4.41485 42.5984 4.49985L45.9222 10.2161H45.7966C44.3833 10.2161 42.1639 9.80173 40.0126 9.12704C39.4735 8.96235 38.8925 8.87735 38.28 8.87735C35.5948 8.87735 32.6688 10.4711 30.0935 11.8789C28.7064 12.6386 27.2669 13.4195 26.487 13.563C25.885 13.6692 25.3878 13.7224 24.969 13.7224C23.9954 13.7224 23.4458 13.5099 22.7339 12.2667C21.9907 10.9599 22.4094 9.5361 23.8018 8.61704L35.8251 3.18767C36.2334 3.04423 36.9348 2.95923 37.7147 2.95923ZM37.7147 1.36548C36.7307 1.36548 35.8408 1.47704 35.2389 1.70017L23.0532 7.20392C20.8653 8.57985 20.19 10.9917 21.3678 13.0583C22.2681 14.6361 23.2678 15.3108 24.9638 15.3108C25.4872 15.3108 26.0787 15.247 26.7539 15.1249C29.3188 14.6627 34.4485 10.4658 38.2748 10.4658C38.7197 10.4658 39.1437 10.5242 39.5468 10.6464C41.6196 11.2945 44.0797 11.8045 45.7914 11.8045C47.2779 11.8045 48.2096 11.4167 47.8485 10.402L43.9436 3.68704C43.394 2.10923 40.2377 1.36548 37.7147 1.36548Z" fill="#EDA600"/>
<defs>
<radialGradient id="paint0_radial" cx="0" cy="0" r="1" gradientUnits="userSpaceOnUse" gradientTransform="translate(43.0797 5.89392) rotate(83.3157) scale(20.3917 15.5224)">
<stop offset="0.599" stop-color="#FFCA28"/>
<stop offset="1" stop-color="#FFB300"/>
</radialGradient>
<radialGradient id="paint1_radial" cx="0" cy="0" r="1" gradientUnits="userSpaceOnUse" gradientTransform="translate(28.7038 9.89577) rotate(96.6843) scale(32.2817 24.5733)">
<stop offset="0.599" stop-color="#FFCA28"/>
<stop offset="1" stop-color="#FFB300"/>
</radialGradient>
<radialGradient id="paint2_radial" cx="0" cy="0" r="1" gradientUnits="userSpaceOnUse" gradientTransform="translate(20.1747 26.2449) rotate(144.344) scale(8.73301 5.78912)">
<stop offset="0.599" stop-color="#FFCA28"/>
<stop offset="1" stop-color="#FFB300"/>
</radialGradient>
<radialGradient id="paint3_radial" cx="0" cy="0" r="1" gradientUnits="userSpaceOnUse" gradientTransform="translate(29.7018 35.3822) rotate(130.307) scale(7.55312 5.67231)">
<stop offset="0.599" stop-color="#FFCA28"/>
<stop offset="1" stop-color="#FFB300"/>
</radialGradient>
<radialGradient id="paint4_radial" cx="0" cy="0" r="1" gradientUnits="userSpaceOnUse" gradientTransform="translate(13.8859 22.5359) rotate(147.751) scale(6.65376 4.94156)">
<stop offset="0.599" stop-color="#FFCA28"/>
<stop offset="1" stop-color="#FFB300"/>
</radialGradient>
<radialGradient id="paint5_radial" cx="0" cy="0" r="1" gradientUnits="userSpaceOnUse" gradientTransform="translate(25.756 30.05) rotate(45.6635) scale(7.5378 9.04419)">
<stop offset="0.599" stop-color="#FFCA28"/>
<stop offset="1" stop-color="#FFB300"/>
</radialGradient>
<linearGradient id="paint6_linear" x1="30.0825" y1="5.6731" x2="36.2628" y2="16.7141" gradientUnits="userSpaceOnUse">
<stop offset="0.599" stop-color="#FFCA28"/>
<stop offset="1" stop-color="#FFB300"/>
</linearGradient>
</defs>
</svg>
