<svg width="65" height="62" viewBox="0 0 65 62" fill="none" xmlns="http://www.w3.org/2000/svg">
<path d="M52.8487 30.0427C56.6684 28.3427 64.1963 25.118 64.1963 25.118C64.1963 25.118 57.1359 22.2174 53.4331 20.6183C55.0428 19.3061 62.7566 15.5608 62.7566 15.5608L50.9894 16.533L57.4812 0.845205C57.4812 0.845205 47.26 8.60677 43.2916 9.60021C43.3075 7.77802 43.3447 2.95427 43.3447 2.95427C43.3447 2.95427 39.7269 6.91739 37.9313 8.25083C35.8434 5.15364 31.8538 0.40958 31.8538 0.40958C31.8538 0.40958 28.2891 4.77114 26.3234 7.77802C24.7084 6.47114 20.3787 0.335205 20.3787 0.335205C20.3787 0.335205 21.3775 7.80989 21.2925 9.75958C17.1488 8.76614 9.49344 5.31302 9.49344 5.31302C9.49344 5.31302 12.8084 11.603 14.0356 14.8277C11.7884 14.8118 4.26594 14.4027 1.57781 14.238C3.75063 15.8849 12.8244 22.4405 12.8244 22.4405L0 24.9268C0 24.9268 9.12156 27.1315 12.8244 28.7305C11.9212 29.4636 9.56781 31.3496 7.67656 32.8583H56.2328C55.0056 31.8861 53.8741 30.9511 52.8487 30.0427Z" fill="#F15A24"/>
<path d="M23.748 21.9836H40.5727V32.8636H23.748V21.9836Z" fill="url(#paint0_linear)"/>
<path d="M61.9186 27.0464C62.0195 26.7808 62.078 26.4992 62.078 26.2017C62.078 24.8736 60.9995 23.7952 59.6714 23.7952C58.5717 23.7952 57.6527 24.5389 57.3658 25.5483C56.9013 25.7145 56.4995 26.0201 56.2152 26.4233C55.9309 26.8264 55.778 27.3075 55.7773 27.8008C55.7773 29.1289 56.8558 30.2074 58.1839 30.2074C58.338 30.2074 58.4867 30.1914 58.6355 30.1595C58.9648 30.3295 59.3314 30.4358 59.7298 30.4358C61.058 30.4358 62.1364 29.3574 62.1364 28.0292C62.1364 27.6839 62.0514 27.3492 61.9186 27.0464Z" fill="#FFEA5C"/>
<path d="M52.9812 1.25453C52.7068 1.35813 52.4555 1.51487 52.2418 1.71575C52.028 1.91664 51.856 2.15773 51.7356 2.42522C51.6152 2.6927 51.5487 2.98131 51.54 3.27452C51.5314 3.56773 51.5806 3.85977 51.685 4.13391C51.9453 4.81922 52.5031 5.29203 53.1566 5.48328C53.3779 6.01871 53.7986 6.44717 54.3299 6.67814C54.8613 6.90911 55.4616 6.92451 56.0041 6.72109C56.2785 6.61749 56.5298 6.46076 56.7435 6.25987C56.9573 6.05898 57.1293 5.81789 57.2497 5.55041C57.3701 5.28293 57.4366 4.99431 57.4453 4.70111C57.454 4.4079 57.4047 4.11586 57.3003 3.84172C57.04 3.15641 56.4822 2.6836 55.8287 2.49234C55.3666 1.38203 54.1128 0.82422 52.9812 1.25453Z" fill="#5C5CFF"/>
<path d="M8.41586 24.0291C8.46319 23.7786 8.45775 23.521 8.3999 23.2728C8.34206 23.0246 8.23307 22.7911 8.0799 22.5874C7.92674 22.3837 7.73276 22.2141 7.51037 22.0896C7.28797 21.9651 7.04205 21.8883 6.78831 21.8642C6.53456 21.8401 6.27858 21.8691 6.03671 21.9496C5.79484 22.03 5.5724 22.1599 5.38361 22.3312C5.19481 22.5024 5.0438 22.7111 4.94023 22.944C4.83666 23.1769 4.78281 23.4289 4.78211 23.6838C4.78211 23.96 4.84586 24.215 4.95211 24.4488C3.88961 24.5019 3.01836 25.3466 2.95461 26.4356C2.92268 26.9949 3.11398 27.5439 3.48649 27.9623C3.85901 28.3806 4.3823 28.634 4.94149 28.6669C5.65867 28.7094 6.31211 28.3853 6.72649 27.8594C7.00805 28.0294 7.33742 28.1356 7.68805 28.1569C8.24729 28.1888 8.79635 27.9975 9.21468 27.625C9.63301 27.2525 9.88643 26.7292 9.9193 26.17C9.97774 25.1766 9.33492 24.3 8.41586 24.0291Z" fill="#45F9FF"/>
<path d="M5.99805 9.32397C7.46505 9.32397 8.6543 8.25366 8.6543 6.93335C8.6543 5.61304 7.46505 4.54272 5.99805 4.54272C4.53104 4.54272 3.3418 5.61304 3.3418 6.93335C3.3418 8.25366 4.53104 9.32397 5.99805 9.32397Z" fill="#4BFF17"/>
<path d="M58.2793 13.4836C59.7463 13.4836 60.9355 12.4133 60.9355 11.093C60.9355 9.77271 59.7463 8.70239 58.2793 8.70239C56.8123 8.70239 55.623 9.77271 55.623 11.093C55.623 12.4133 56.8123 13.4836 58.2793 13.4836Z" fill="#FF17C8"/>
<path d="M51.0865 14.7161C50.6296 14.4611 50.4968 13.8555 50.6828 13.3667C50.9643 12.6336 51.1396 11.8526 51.1821 11.0451C51.4265 6.38077 47.3412 2.55577 42.0818 2.60889C40.2278 2.62483 38.5012 3.13483 37.0403 3.98483C35.8237 1.60483 33.2153 -0.0314174 30.1925 0.000457617C27.0581 0.0376451 24.4125 1.85983 23.3181 4.39921C22.5265 4.14421 21.6871 4.00608 20.8212 4.01139C16.5606 4.04858 13.4793 6.55077 13.7875 11.2205C13.8406 12.012 14.4675 13.5048 14.4675 13.5048C14.4675 13.5048 13.1871 13.8183 12.1353 15.5926C11.28 17.0323 11.1896 19.3539 11.9334 20.8839C13.0968 23.2798 16.3268 24.4061 18.7281 23.2533C19.0681 23.0886 19.4559 22.8814 19.8065 23.0248C19.9818 23.0992 20.715 25.7873 27.3131 27.158C31.1168 27.9495 35.5793 25.1605 35.829 25.1551C36.1159 25.1498 36.3709 25.3251 36.61 25.4845C36.61 25.4845 38.3737 27.5086 42.3209 26.563C46.045 25.6758 46.4062 23.147 46.725 23.0461C46.98 22.9664 51.3468 24.337 53.1903 20.1561C53.9978 18.2861 52.6218 15.5714 51.0865 14.7161Z" fill="#D2EDF7"/>
<path d="M13.7447 10.7103C13.7766 11.3744 13.9307 13.1541 14.7435 13.6534C15.2907 13.9881 15.7794 14.1475 16.2097 14.2006C17.0438 14.3016 17.5485 13.2709 16.9853 12.6494C16.3691 11.9747 15.705 10.8166 15.45 8.8775C15.0835 6.14156 17.235 4.76562 17.235 4.76562C17.235 4.76562 13.5375 6.26375 13.7447 10.7103Z" fill="#92CBEB"/>
<path d="M53.1687 20.1665C53.6999 18.9659 53.5193 17.2712 52.5524 16.1874C52.5524 16.1874 53.1421 17.7227 52.3984 19.2474C51.644 20.7934 50.0449 22.2384 48.3768 21.8399C47.3355 21.5902 48.3555 19.8796 46.8893 17.3615C46.9637 19.7362 46.9159 25.1177 39.9459 25.564C38.6709 25.6437 35.6162 24.544 35.4355 22.6952C35.0318 18.6684 38.8568 19.2262 39.404 19.3112C40.7162 19.5077 42.1505 18.9393 42.3684 17.9034C42.5649 16.963 42.108 16.5912 41.6777 16.2193C40.4452 15.1674 38.5062 15.364 37.1355 16.2352C35.053 17.5634 34.0915 21.0802 32.4393 22.7855C30.5109 24.7724 27.3871 25.2505 24.7255 24.4855C20.1674 23.1734 18.7437 17.3615 18.7437 17.3615C18.1487 18.8809 18.6746 20.8784 19.0412 21.7709C14.499 22.7112 12.2305 20.3471 11.5293 19.6565C11.6037 20.0815 11.7259 20.5012 11.9171 20.8943C13.0805 23.2902 16.3105 24.4165 18.7118 23.2637C19.0518 23.099 19.4396 22.8918 19.7902 23.0352C19.9655 23.1096 20.6987 25.7977 27.2968 27.1684C31.1005 27.9599 35.563 25.1709 35.8127 25.1655C36.0996 25.1602 36.3546 25.3355 36.5937 25.4949C36.5937 25.4949 38.3574 27.519 42.3046 26.5734C46.0287 25.6862 46.3899 23.1574 46.7087 23.0565C46.9637 22.9715 51.3306 24.3421 53.1687 20.1665Z" fill="#78C0E8"/>
<path d="M33.7246 0.78125C33.7246 0.78125 34.4312 1.79063 34.5746 2.31656C35.1324 4.3725 34.0805 5.73781 33.7777 6.29563C33.6183 6.59312 33.4749 6.93844 33.5865 7.25187C33.7087 7.59188 34.0805 7.7725 34.4312 7.82562C35.3768 7.97969 36.3596 7.45906 36.8855 6.66219C37.4008 5.86531 38.3412 2.66719 33.7246 0.78125Z" fill="#92CBEB"/>
<path d="M50.6818 13.3669C50.9633 12.6338 51.1387 11.8528 51.1812 11.0453C51.2768 9.24969 50.7243 7.58688 49.7149 6.21094C50.2196 7.13 50.3471 8.27219 50.1346 9.31344C49.8424 10.7319 48.934 11.9697 47.8821 12.9631C46.6018 14.1691 47.5102 14.7269 48.2487 14.7269C50.0283 14.7216 50.5808 13.6272 50.6818 13.3669Z" fill="#92CBEB"/>
<path d="M35.5527 32.8586V29.2886C35.5527 28.6193 34.9577 28.0774 34.2246 28.0774C33.4915 28.0774 32.8965 28.6193 32.8965 29.2886V32.8586H35.5527Z" fill="#039BE5"/>
<path d="M30.3027 32.8585V27.4185C30.3027 26.9775 29.9468 26.6216 29.5059 26.6216C29.0649 26.6216 28.709 26.9775 28.709 27.4185V32.8585H30.3027Z" fill="#039BE5"/>
<path d="M31.9491 61.0149C40.1304 61.0149 47.7804 58.2524 53.4116 53.3118C59.1651 48.2065 62.3738 41.1674 62.7245 32.8586H1.17383C1.96008 52.1855 17.5045 61.0149 31.9491 61.0149Z" fill="url(#paint1_radial)"/>
<path d="M5.29102 47.2336C5.3707 47.3665 5.46633 47.4886 5.55133 47.6215C5.4982 47.5311 5.43977 47.4408 5.38664 47.3558C5.35477 47.3133 5.31758 47.2761 5.29102 47.2336Z" fill="#EB8F00"/>
<path d="M61.5572 32.8579C60.8825 40.4707 57.7322 46.9413 52.3453 51.7172C46.7141 56.6579 39.0641 59.4204 30.8828 59.4204C21.3363 59.4204 11.3116 55.5528 5.38281 47.3557C5.43594 47.446 5.48906 47.5363 5.5475 47.6213C5.73344 47.9135 5.91938 48.195 6.11594 48.4766C6.25938 48.6838 6.3975 48.891 6.54625 49.0929C6.85969 49.5179 7.18375 49.9322 7.51844 50.336C7.67781 50.5272 7.8425 50.7079 8.00187 50.8938C8.23031 51.1541 8.46406 51.4091 8.69781 51.6588C9.19224 52.1845 9.70984 52.6879 10.2491 53.1675C10.4244 53.3269 10.605 53.4757 10.7803 53.6297C11.0831 53.8847 11.3859 54.1344 11.6941 54.3788C11.8747 54.5222 12.0606 54.6604 12.2466 54.7985C12.56 55.0322 12.8841 55.2554 13.2081 55.4785C13.3569 55.5794 13.5056 55.6857 13.6544 55.7866C14.1059 56.0788 14.5628 56.3604 15.0303 56.626C15.2056 56.7269 15.3863 56.8225 15.5616 56.9182C15.9069 57.1094 16.2575 57.29 16.6081 57.4707C16.7781 57.5557 16.9534 57.646 17.1234 57.7257C17.6175 57.9647 18.1169 58.1878 18.6269 58.4003C18.7597 58.4535 18.8925 58.5013 19.02 58.5544C19.4291 58.7191 19.8434 58.8732 20.2631 59.0219C20.4384 59.0857 20.6191 59.1441 20.7944 59.2079C21.2566 59.3619 21.7241 59.5107 22.1916 59.6435C22.2766 59.67 22.3616 59.6966 22.4413 59.7179C22.9884 59.8719 23.5356 60.0047 24.0881 60.1322C24.2528 60.1694 24.4122 60.2013 24.5769 60.2385C25.0178 60.3341 25.4588 60.4138 25.8997 60.4935C26.0431 60.52 26.1813 60.5466 26.3194 60.5679C26.8825 60.6582 27.4456 60.7325 28.0088 60.7963C28.1309 60.8122 28.2531 60.8175 28.37 60.8335C28.8322 60.8813 29.2944 60.9185 29.7566 60.945C29.9159 60.9557 30.0753 60.9663 30.2294 60.9716C30.7978 60.9982 31.3716 61.0194 31.94 61.0194C40.1213 61.0194 47.7713 58.2569 53.4025 53.3163C53.7744 52.9869 54.1356 52.6469 54.4809 52.3069C54.5978 52.19 54.7147 52.0679 54.8316 51.9457C55.0547 51.7172 55.2831 51.4835 55.5009 51.2497C55.6391 51.101 55.7666 50.9469 55.8994 50.7929C56.0853 50.5803 56.2713 50.3678 56.4519 50.1447C56.59 49.9747 56.7228 49.7994 56.8556 49.6294C57.0203 49.4222 57.1797 49.215 57.3391 48.9972C57.4719 48.8113 57.6047 48.62 57.7322 48.4341C57.8756 48.2269 58.0191 48.0197 58.1572 47.8072C58.2847 47.6054 58.4122 47.4035 58.5344 47.2016C58.6619 46.9944 58.7894 46.7872 58.9116 46.5747C59.0338 46.3622 59.1506 46.1444 59.2675 45.9319C59.3791 45.7247 59.4906 45.5175 59.5969 45.305C59.7138 45.0819 59.82 44.8535 59.9316 44.6197C60.0272 44.4125 60.1228 44.2054 60.2184 43.9929C60.3247 43.7538 60.4256 43.5147 60.5266 43.2704C60.6116 43.0632 60.6913 42.856 60.7709 42.6488C60.8666 42.3991 60.9622 42.1441 61.0472 41.8891C61.1163 41.6872 61.1853 41.48 61.2544 41.2729C61.3394 41.0072 61.4244 40.7416 61.5041 40.4707C61.5625 40.2688 61.6156 40.0669 61.6741 39.8597C61.7484 39.5782 61.8228 39.2966 61.8919 39.015C61.9397 38.8185 61.9822 38.6219 62.0247 38.42C62.0884 38.1225 62.1522 37.825 62.2106 37.5222C62.2478 37.3363 62.2744 37.145 62.3063 36.9591C62.3594 36.6403 62.4125 36.3216 62.455 35.9975C62.4763 35.8275 62.4975 35.6575 62.5134 35.4822C62.5559 35.1369 62.5984 34.7916 62.6303 34.441C62.6409 34.3082 62.6463 34.1754 62.6569 34.0425C62.6888 33.6494 62.71 33.251 62.7313 32.8525H61.5572V32.8579Z" fill="#EB8F00"/>
<path d="M61.5572 32.8579C60.8825 40.4707 57.7322 46.9413 52.3453 51.7172C46.7141 56.6579 39.0641 59.4204 30.8828 59.4204C21.3363 59.4204 11.3116 55.5528 5.38281 47.3557C5.43594 47.446 5.48906 47.5363 5.5475 47.6213C5.73344 47.9135 5.91938 48.195 6.11594 48.4766C6.25938 48.6838 6.3975 48.891 6.54625 49.0929C6.85969 49.5179 7.18375 49.9322 7.51844 50.336C7.67781 50.5272 7.8425 50.7079 8.00187 50.8938C8.23031 51.1541 8.46406 51.4091 8.69781 51.6588C9.19224 52.1845 9.70984 52.6879 10.2491 53.1675C10.4244 53.3269 10.605 53.4757 10.7803 53.6297C11.0831 53.8847 11.3859 54.1344 11.6941 54.3788C11.8747 54.5222 12.0606 54.6604 12.2466 54.7985C12.56 55.0322 12.8841 55.2554 13.2081 55.4785C13.3569 55.5794 13.5056 55.6857 13.6544 55.7866C14.1059 56.0788 14.5628 56.3604 15.0303 56.626C15.2056 56.7269 15.3863 56.8225 15.5616 56.9182C15.9069 57.1094 16.2575 57.29 16.6081 57.4707C16.7781 57.5557 16.9534 57.646 17.1234 57.7257C17.6175 57.9647 18.1169 58.1878 18.6269 58.4003C18.7597 58.4535 18.8925 58.5013 19.02 58.5544C19.4291 58.7191 19.8434 58.8732 20.2631 59.0219C20.4384 59.0857 20.6191 59.1441 20.7944 59.2079C21.2566 59.3619 21.7241 59.5107 22.1916 59.6435C22.2766 59.67 22.3616 59.6966 22.4413 59.7179C22.9884 59.8719 23.5356 60.0047 24.0881 60.1322C24.2528 60.1694 24.4122 60.2013 24.5769 60.2385C25.0178 60.3341 25.4588 60.4138 25.8997 60.4935C26.0431 60.52 26.1813 60.5466 26.3194 60.5679C26.8825 60.6582 27.4456 60.7325 28.0088 60.7963C28.1309 60.8122 28.2531 60.8175 28.37 60.8335C28.8322 60.8813 29.2944 60.9185 29.7566 60.945C29.9159 60.9557 30.0753 60.9663 30.2294 60.9716C30.7978 60.9982 31.3716 61.0194 31.94 61.0194C40.1213 61.0194 47.7713 58.2569 53.4025 53.3163C53.7744 52.9869 54.1356 52.6469 54.4809 52.3069C54.5978 52.19 54.7147 52.0679 54.8316 51.9457C55.0547 51.7172 55.2831 51.4835 55.5009 51.2497C55.6391 51.101 55.7666 50.9469 55.8994 50.7929C56.0853 50.5803 56.2713 50.3678 56.4519 50.1447C56.59 49.9747 56.7228 49.7994 56.8556 49.6294C57.0203 49.4222 57.1797 49.215 57.3391 48.9972C57.4719 48.8113 57.6047 48.62 57.7322 48.4341C57.8756 48.2269 58.0191 48.0197 58.1572 47.8072C58.2847 47.6054 58.4122 47.4035 58.5344 47.2016C58.6619 46.9944 58.7894 46.7872 58.9116 46.5747C59.0338 46.3622 59.1506 46.1444 59.2675 45.9319C59.3791 45.7247 59.4906 45.5175 59.5969 45.305C59.7138 45.0819 59.82 44.8535 59.9316 44.6197C60.0272 44.4125 60.1228 44.2054 60.2184 43.9929C60.3247 43.7538 60.4256 43.5147 60.5266 43.2704C60.6116 43.0632 60.6913 42.856 60.7709 42.6488C60.8666 42.3991 60.9622 42.1441 61.0472 41.8891C61.1163 41.6872 61.1853 41.48 61.2544 41.2729C61.3394 41.0072 61.4244 40.7416 61.5041 40.4707C61.5625 40.2688 61.6156 40.0669 61.6741 39.8597C61.7484 39.5782 61.8228 39.2966 61.8919 39.015C61.9397 38.8185 61.9822 38.6219 62.0247 38.42C62.0884 38.1225 62.1522 37.825 62.2106 37.5222C62.2478 37.3363 62.2744 37.145 62.3063 36.9591C62.3594 36.6403 62.4125 36.3216 62.455 35.9975C62.4763 35.8275 62.4975 35.6575 62.5134 35.4822C62.5559 35.1369 62.5984 34.7916 62.6303 34.441C62.6409 34.3082 62.6463 34.1754 62.6569 34.0425C62.6888 33.6494 62.71 33.251 62.7313 32.8525H61.5572V32.8579Z" fill="#EB8F00"/>
<path d="M62.6504 34.0477C62.6823 33.6545 62.7088 33.2561 62.7248 32.8577H62.7194C62.7035 33.2561 62.677 33.6545 62.6504 34.0477Z" fill="#EB8F00"/>
<path d="M62.6504 34.0477C62.6823 33.6545 62.7088 33.2561 62.7248 32.8577H62.7194C62.7035 33.2561 62.677 33.6545 62.6504 34.0477Z" fill="url(#paint2_radial)"/>
<path d="M39.4982 53.6512C39.4982 56.6262 36.2098 58.374 32.1563 58.374C28.1029 58.374 24.8145 56.6262 24.8145 53.6512C24.8145 50.6762 28.1029 47.4409 32.1563 47.4409C36.2098 47.4409 39.4982 50.6762 39.4982 53.6512Z" fill="#422B0D"/>
<path d="M20.1987 46.0541C24.7493 46.0541 28.4384 42.365 28.4384 37.8144C28.4384 33.2637 24.7493 29.5747 20.1987 29.5747C15.648 29.5747 11.959 33.2637 11.959 37.8144C11.959 42.365 15.648 46.0541 20.1987 46.0541Z" fill="white"/>
<path d="M20.1977 41.4111C22.1547 41.4111 23.7412 39.8009 23.7412 37.8146C23.7412 35.8283 22.1547 34.218 20.1977 34.218C18.2407 34.218 16.6543 35.8283 16.6543 37.8146C16.6543 39.8009 18.2407 41.4111 20.1977 41.4111Z" fill="#422B0D"/>
<path d="M44.1049 46.0541C48.6556 46.0541 52.3446 42.365 52.3446 37.8144C52.3446 33.2637 48.6556 29.5747 44.1049 29.5747C39.5543 29.5747 35.8652 33.2637 35.8652 37.8144C35.8652 42.365 39.5543 46.0541 44.1049 46.0541Z" fill="white"/>
<path d="M44.1157 41.4536C46.0727 41.4536 47.6591 39.8434 47.6591 37.8571C47.6591 35.8707 46.0727 34.2605 44.1157 34.2605C42.1587 34.2605 40.5723 35.8707 40.5723 37.8571C40.5723 39.8434 42.1587 41.4536 44.1157 41.4536Z" fill="#422B0D"/>
<defs>
<linearGradient id="paint0_linear" x1="32.1615" y1="30.1521" x2="32.1615" y2="33.9389" gradientUnits="userSpaceOnUse">
<stop stop-color="#78C0E8"/>
<stop offset="1" stop-color="#31A0D6"/>
</linearGradient>
<radialGradient id="paint1_radial" cx="0" cy="0" r="1" gradientUnits="userSpaceOnUse" gradientTransform="translate(31.9491 31.318) scale(30.2584)">
<stop offset="0.5" stop-color="#FDE030"/>
<stop offset="0.919" stop-color="#F7C02B"/>
<stop offset="1" stop-color="#F4A223"/>
</radialGradient>
<radialGradient id="paint2_radial" cx="0" cy="0" r="1" gradientUnits="userSpaceOnUse" gradientTransform="translate(31.951 31.317) scale(30.2569 30.2585)">
<stop offset="0.5" stop-color="#FDE030"/>
<stop offset="0.919" stop-color="#F7C02B"/>
<stop offset="1" stop-color="#F4A223"/>
</radialGradient>
</defs>
</svg>
