<svg width="38" height="64" viewBox="0 0 38 64" fill="none" xmlns="http://www.w3.org/2000/svg">
<path d="M10.4688 55.25V57.375L14.0334 62.8044C14.2248 63.0954 14.4841 63.3339 14.7881 63.4989C15.0922 63.6638 15.4316 63.7501 15.7764 63.75H21.9111C22.6125 63.75 23.2668 63.3941 23.6541 62.8044L27.2188 57.375V55.25H10.4688Z" fill="url(#paint0_radial)"/>
<path d="M10.4688 43.8281H27.2188V57.375H10.4688V43.8281Z" fill="url(#paint1_linear)"/>
<path opacity="0.2" d="M25.6484 45.4219V56.8916L22.3455 61.9172C22.2461 62.0659 22.0838 62.1562 21.9111 62.1562H15.7764C15.5984 62.1562 15.4362 62.0659 15.342 61.9172L12.0391 56.8916V45.4219H25.6484ZM27.2188 43.8281H10.4688V57.375L14.0334 62.8044C14.2248 63.0954 14.4841 63.3339 14.7881 63.4989C15.0922 63.6638 15.4316 63.7501 15.7764 63.75H21.9111C22.6125 63.75 23.2668 63.3941 23.6541 62.8044L27.2188 57.375V43.8281Z" fill="#424242"/>
<path d="M27.1099 48.875L10.9462 52.19C10.3651 52.3122 9.78936 51.9243 9.66897 51.3293L9.60616 51C9.48577 50.4103 9.86788 49.8259 10.4541 49.7037L26.6179 46.3887C27.1989 46.2665 27.7747 46.6543 27.8951 47.2493L27.9579 47.5787C28.073 48.1737 27.6962 48.7581 27.1099 48.875Z" fill="#BBDEFB"/>
<path d="M27.1099 54.039L10.9462 57.354C10.3651 57.4762 9.78936 57.0884 9.66897 56.4934L9.60616 56.164C9.48577 55.5743 9.86788 54.99 10.4541 54.8678L26.6179 51.5528C27.1989 51.4306 27.7747 51.8184 27.8951 52.4134L27.9579 52.7428C28.073 53.3378 27.6962 53.9222 27.1099 54.039Z" fill="#90CAF9"/>
<path d="M37.6875 19.125C37.6875 8.56375 29.2497 0 18.8438 0C8.43781 0 0 8.56375 0 19.125C0 23.7787 1.76398 27.9331 4.355 31.3544C6.73664 34.4994 8.05047 37.8037 7.76258 40.1997C7.06641 45.985 10.5106 46.75 10.5106 46.75H27.1769C27.1769 46.75 30.6211 45.985 29.9249 40.1997C29.637 37.8037 30.9509 34.4994 33.3325 31.3544C35.9235 27.9331 37.6875 23.7787 37.6875 19.125Z" fill="url(#paint2_radial)"/>
<path d="M21.8695 47.8338H21.8015C21.6987 47.8251 21.5986 47.796 21.507 47.748C21.4153 47.7 21.3338 47.6342 21.2672 47.5543C21.2007 47.4744 21.1502 47.3819 21.1188 47.2822C21.0875 47.1825 21.0757 47.0775 21.0843 46.9732L21.3408 43.8654C22.1783 37.331 24.4919 29.5323 25.8686 25.3726C25.0939 25.0113 24.2878 24.3473 23.6754 23.5238C23.2671 22.9713 22.974 22.3976 22.8065 21.8185C21.4612 21.7176 20.2992 21.2501 19.3727 20.5966C18.4986 21.3935 17.2475 22.0629 15.4679 22.2382C15.0229 22.2807 14.6042 22.302 14.2116 22.2913C13.9185 23.0245 13.5207 23.832 12.9815 24.7298C12.6681 25.2578 12.2122 25.6837 11.6677 25.957L17.5878 46.3091C17.7082 46.7288 17.4726 47.1751 17.0591 47.2973C16.6456 47.4195 16.2059 47.1804 16.0855 46.7607L10.1393 26.3341C10.0032 26.3395 9.85661 26.3395 9.71528 26.3288C8.01935 26.2332 6.3077 25.2238 5.73716 23.9754C5.38645 23.2104 5.47021 22.4188 5.96747 21.7548C6.36528 21.2182 6.95677 20.8782 7.632 20.7826C8.31771 20.6923 9.02435 20.8782 9.56349 21.2979C10.7412 22.2223 11.0553 23.6885 11.1129 24.0391L11.2123 24.3845C11.3746 24.2623 11.5211 24.1082 11.6415 23.9063C11.9504 23.391 12.3011 22.7482 12.5994 22.0682C11.7986 21.8398 11.16 21.4466 10.6941 20.8782C9.9456 19.9698 9.7938 18.6576 10.2911 17.4516C10.5109 16.9257 11.0605 16.2457 11.9033 16.0757C12.5785 15.9376 13.2694 16.182 13.8452 16.7557C14.5675 17.4782 15.1329 18.6895 14.7089 20.6923C14.9025 20.687 15.1067 20.671 15.3161 20.6498C16.5985 20.5223 17.525 20.0813 18.1897 19.5288C17.7396 19.0135 17.4046 18.4663 17.19 17.9298C16.6718 16.6229 16.834 15.3479 17.6297 14.5191C18.284 13.8338 18.9068 13.7488 19.3099 13.7966C20.1212 13.8923 20.6185 14.5457 20.8436 14.9282C21.2728 15.656 21.4298 16.931 21.1838 17.712C21.0529 18.1263 20.8174 18.7373 20.3986 19.3748C21.0268 19.7838 21.7858 20.0866 22.6547 20.1876C22.6861 19.906 22.7489 19.6298 22.8379 19.3535C23.5445 17.2763 24.7275 16.7451 25.3713 16.6176C26.0936 16.4688 26.8265 16.6707 27.2295 17.1329C27.7111 17.6801 27.9676 18.8276 27.486 19.8688C27.1353 20.6391 26.3187 21.5157 24.4553 21.7601C24.5966 22.0841 24.7746 22.3551 24.9211 22.5516C25.387 23.1785 25.9366 23.6035 26.3711 23.8426C26.5124 23.4388 26.6276 23.1148 26.7165 22.8704C27.5697 20.5913 29.2604 19.5926 30.4905 19.7891C31.239 19.906 32.0661 20.517 32.1446 21.8876C32.1865 22.642 31.9404 23.3432 31.4327 23.9223C30.2968 25.2132 28.224 25.5479 27.4179 25.6329C26.0779 29.6545 23.7225 37.5063 22.885 44.0248L22.6285 47.0954C22.6128 47.5204 22.2725 47.8338 21.8695 47.8338ZM7.9827 22.3498C7.9356 22.3498 7.88849 22.3551 7.84138 22.3604C7.58489 22.3976 7.36505 22.5198 7.22372 22.711C7.07716 22.9076 7.06145 23.0776 7.16614 23.3007C7.4488 23.9116 8.50614 24.6129 9.67341 24.7245L9.58966 24.4376C9.57919 24.3951 9.56872 24.3579 9.56349 24.3154C9.56349 24.3101 9.39599 23.1785 8.60036 22.557C8.42763 22.4241 8.20778 22.3498 7.9827 22.3498ZM30.1817 21.367C29.6478 21.367 28.7213 22.047 28.1979 23.4441C28.1455 23.5823 28.0879 23.747 28.0199 23.9382C28.8522 23.7629 29.7891 23.4176 30.2811 22.8651C30.5167 22.5995 30.6161 22.3232 30.5952 21.9885C30.5743 21.6113 30.4643 21.4041 30.2707 21.3776C30.2393 21.3723 30.2131 21.367 30.1817 21.367ZM12.2749 17.6323C12.254 17.6323 12.233 17.6323 12.2121 17.6376C12.0132 17.6801 11.8143 17.8926 11.741 18.0679C11.4688 18.7213 11.5316 19.4066 11.9033 19.8529C12.1754 20.1823 12.589 20.4213 13.1333 20.5541C13.395 19.5129 13.3741 18.5195 12.746 17.8926C12.568 17.7173 12.411 17.6323 12.2749 17.6323ZM25.8581 18.1741C25.7848 18.1741 25.6906 18.1848 25.5859 18.222C25.0834 18.3866 24.6385 18.9816 24.3297 19.8901C24.2938 19.9882 24.2675 20.0896 24.2511 20.1929C25.1829 20.076 25.811 19.752 26.0622 19.242C26.303 18.7638 26.1355 18.291 26.0727 18.206C26.057 18.2007 25.9785 18.1741 25.8581 18.1741ZM19.1162 15.3851C19.0691 15.3851 18.9383 15.4382 18.7498 15.6348C18.2473 16.1607 18.5038 17.0001 18.6399 17.3401C18.7708 17.6641 18.9644 17.9935 19.2104 18.3123C19.4355 17.9298 19.5821 17.5579 19.6815 17.2445C19.7915 16.8885 19.692 16.097 19.4879 15.757C19.3465 15.5179 19.1895 15.3957 19.1215 15.3904C19.1215 15.3851 19.1215 15.3851 19.1162 15.3851Z" fill="#FFD54F"/>
<path d="M21.8695 47.8346H21.8015C21.6987 47.8259 21.5986 47.7967 21.507 47.7487C21.4153 47.7008 21.3338 47.6349 21.2672 47.555C21.2007 47.4751 21.1502 47.3826 21.1188 47.2829C21.0875 47.1832 21.0757 47.0782 21.0843 46.9739L21.3408 43.8661C22.1783 37.3318 24.4919 29.533 25.8686 25.3733C25.0939 25.0121 24.2878 24.348 23.6754 23.5246C23.2671 22.9721 22.974 22.3983 22.8065 21.8193C21.4612 21.7183 20.2992 21.2508 19.3727 20.5974C18.4986 21.3943 17.2475 22.0636 15.4679 22.2389C15.0229 22.2814 14.6042 22.3027 14.2116 22.2921C13.9185 23.0252 13.5207 23.8327 12.9815 24.7305C12.6681 25.2585 12.2122 25.6844 11.6677 25.9577L17.5878 46.3099C17.7082 46.7296 17.4726 47.1758 17.0591 47.298C16.6456 47.4202 16.2059 47.1811 16.0855 46.7614L10.1393 26.3349C10.0032 26.3402 9.85661 26.3402 9.71528 26.3296C8.01935 26.2339 6.3077 25.2246 5.73716 23.9761C5.38645 23.2111 5.47021 22.4196 5.96747 21.7555C6.36528 21.2189 6.95677 20.8789 7.632 20.7833C8.31771 20.693 9.02435 20.8789 9.56349 21.2986C10.7412 22.223 11.0553 23.6893 11.1129 24.0399L11.2123 24.3852C11.3746 24.263 11.5211 24.1089 11.6415 23.9071C11.9504 23.3918 12.3011 22.7489 12.5994 22.0689C11.7986 21.8405 11.16 21.4474 10.6941 20.8789C9.9456 19.9705 9.7938 18.6583 10.2911 17.4524C10.5109 16.9264 11.0605 16.2464 11.9033 16.0764C12.5785 15.9383 13.2694 16.1827 13.8452 16.7564C14.5675 17.4789 15.1329 18.6902 14.7089 20.693C14.9025 20.6877 15.1067 20.6717 15.3161 20.6505C16.5985 20.523 17.525 20.0821 18.1897 19.5296C17.7396 19.0142 17.4046 18.4671 17.19 17.9305C16.6718 16.6236 16.834 15.3486 17.6297 14.5199C18.284 13.8346 18.9068 13.7496 19.3099 13.7974C20.1212 13.893 20.6185 14.5464 20.8436 14.9289C21.2728 15.6567 21.4298 16.9317 21.1838 17.7127C21.0529 18.1271 20.8174 18.738 20.3986 19.3755C21.0268 19.7846 21.7858 20.0874 22.6547 20.1883C22.6861 19.9068 22.7489 19.6305 22.8379 19.3543C23.5445 17.2771 24.7275 16.7458 25.3713 16.6183C26.0936 16.4696 26.8265 16.6714 27.2295 17.1336C27.7111 17.6808 27.9676 18.8283 27.486 19.8696C27.1353 20.6399 26.3187 21.5164 24.4553 21.7608C24.5966 22.0849 24.7746 22.3558 24.9211 22.5524C25.387 23.1793 25.9366 23.6043 26.3711 23.8433C26.5124 23.4396 26.6276 23.1155 26.7165 22.8711C27.5697 20.5921 29.2604 19.5933 30.4905 19.7899C31.239 19.9068 32.0661 20.5177 32.1446 21.8883C32.1865 22.6427 31.9404 23.3439 31.4327 23.923C30.2968 25.2139 28.224 25.5486 27.4179 25.6336C26.0779 29.6552 23.7225 37.5071 22.885 44.0255L22.6285 47.0961C22.6128 47.5211 22.2725 47.8346 21.8695 47.8346ZM7.9827 22.3505C7.9356 22.3505 7.88849 22.3558 7.84138 22.3611C7.58489 22.3983 7.36505 22.5205 7.22372 22.7118C7.07716 22.9083 7.06145 23.0783 7.16614 23.3014C7.4488 23.9124 8.50614 24.6136 9.67341 24.7252L9.58966 24.4383C9.57919 24.3958 9.56872 24.3586 9.56349 24.3161C9.56349 24.3108 9.39599 23.1792 8.60036 22.5577C8.42763 22.4249 8.20778 22.3505 7.9827 22.3505ZM30.1817 21.3677C29.6478 21.3677 28.7213 22.0477 28.1979 23.4449C28.1455 23.583 28.0879 23.7477 28.0199 23.9389C28.8522 23.7636 29.7891 23.4183 30.2811 22.8658C30.5167 22.6002 30.6161 22.3239 30.5952 21.9893C30.5743 21.6121 30.4643 21.4049 30.2707 21.3783C30.2393 21.373 30.2131 21.3677 30.1817 21.3677ZM12.2749 17.633C12.254 17.633 12.233 17.633 12.2121 17.6383C12.0132 17.6808 11.8143 17.8933 11.741 18.0686C11.4688 18.7221 11.5316 19.4074 11.9033 19.8536C12.1754 20.183 12.589 20.4221 13.1333 20.5549C13.395 19.5136 13.3741 18.5202 12.746 17.8933C12.568 17.718 12.411 17.633 12.2749 17.633ZM25.8581 18.1749C25.7848 18.1749 25.6906 18.1855 25.5859 18.2227C25.0834 18.3874 24.6385 18.9824 24.3297 19.8908C24.2938 19.9889 24.2675 20.0903 24.2511 20.1936C25.1829 20.0767 25.811 19.7527 26.0622 19.2427C26.303 18.7646 26.1355 18.2917 26.0727 18.2068C26.057 18.2014 25.9785 18.1749 25.8581 18.1749ZM19.1162 15.3858C19.0691 15.3858 18.9383 15.4389 18.7498 15.6355C18.2473 16.1614 18.5038 17.0008 18.6399 17.3408C18.7708 17.6649 18.9644 17.9943 19.2104 18.313C19.4355 17.9305 19.5821 17.5586 19.6815 17.2452C19.7915 16.8892 19.692 16.0977 19.4879 15.7577C19.3465 15.5186 19.1895 15.3964 19.1215 15.3911C19.1215 15.3858 19.1215 15.3858 19.1162 15.3858Z" fill="#FDD835"/>
<path opacity="0.2" d="M19.1213 13.7917C19.1894 13.7917 19.247 13.7971 19.3098 13.8024C20.1211 13.898 20.6184 14.5514 20.8434 14.9339C21.2727 15.6617 21.4297 16.9367 21.1837 17.7177C21.0528 18.1321 20.8173 18.743 20.3985 19.3805C21.0267 19.7896 21.7856 20.0924 22.6545 20.1933C22.6859 19.9117 22.7488 19.6355 22.8377 19.3592C23.5444 17.2821 24.7274 16.7508 25.3712 16.6233C25.5282 16.5914 25.6852 16.5755 25.8423 16.5755C26.3971 16.5755 26.9153 16.7774 27.2294 17.1386C27.7109 17.6858 27.9674 18.8333 27.4859 19.8746C27.1352 20.6449 26.3186 21.5214 24.4552 21.7658C24.5965 22.0899 24.7745 22.3608 24.921 22.5574C25.3869 23.1842 25.9365 23.6092 26.3709 23.8483C26.5123 23.4446 26.6274 23.1205 26.7164 22.8761C27.4963 20.783 28.9881 19.7683 30.1816 19.7683C30.2863 19.7683 30.3909 19.7736 30.4904 19.7896C31.2389 19.9064 32.066 20.5174 32.1445 21.888C32.1863 22.6424 31.9403 23.3436 31.4326 23.9227C30.2967 25.2136 28.2239 25.5483 27.4178 25.6333C26.0778 29.6549 23.7224 37.5068 22.8849 44.0252L22.6284 47.0958C22.6114 47.2941 22.5219 47.4787 22.3776 47.6134C22.2333 47.748 22.0445 47.823 21.8484 47.8236H21.7804C21.6776 47.8149 21.5776 47.7858 21.4859 47.7378C21.3942 47.6898 21.3128 47.624 21.2462 47.5441C21.1796 47.4642 21.1292 47.3717 21.0978 47.272C21.0664 47.1723 21.0547 47.0673 21.0633 46.963L21.3198 43.8552C22.1573 37.3208 24.4709 29.5221 25.8475 25.3624C25.0728 25.0011 24.2667 24.3371 23.6543 23.5136C23.246 22.9611 22.9529 22.3874 22.7854 21.8083C21.4611 21.718 20.2991 21.2505 19.3726 20.5971C18.4985 21.3939 17.2474 22.0633 15.4677 22.2386C15.1013 22.2758 14.7559 22.2917 14.4261 22.2917H14.2115C13.9184 23.0249 13.5206 23.8324 12.9814 24.7302C12.668 25.2582 12.212 25.6841 11.6676 25.9574L17.5877 46.3096C17.7081 46.7292 17.4725 47.1755 17.059 47.2977C16.9857 47.3189 16.9124 47.3296 16.8339 47.3296C16.4937 47.3296 16.1796 47.1064 16.0802 46.7558L10.1392 26.3346C10.0816 26.3346 10.024 26.3399 9.96642 26.3399C9.88267 26.3399 9.79892 26.3399 9.70993 26.3346C8.014 26.2389 6.30236 25.2296 5.73181 23.9811C5.38111 23.2161 5.46486 22.4246 5.96212 21.7605C6.35994 21.2239 6.95142 20.8839 7.62665 20.7883C7.74181 20.7724 7.85697 20.7671 7.97212 20.7671C8.54267 20.7671 9.10798 20.9583 9.55814 21.3089C10.7359 22.2333 11.0499 23.6996 11.1075 24.0502L11.207 24.3955C11.3692 24.2733 11.5158 24.1192 11.6362 23.9174C11.945 23.4021 12.2957 22.7592 12.5941 22.0792C11.7932 21.8508 11.1546 21.4577 10.6888 20.8892C9.94025 19.9808 9.78845 18.6686 10.2857 17.4627C10.5056 16.9367 11.0552 16.2567 11.8979 16.0867C12.0235 16.0602 12.1439 16.0496 12.2695 16.0496C12.8244 16.0496 13.3688 16.2992 13.8399 16.7667C14.5622 17.4892 15.1275 18.7005 14.7035 20.7033C14.8972 20.698 15.1013 20.6821 15.3107 20.6608C16.5931 20.5333 17.5196 20.0924 18.1844 19.5399C17.7342 19.0246 17.3992 18.4774 17.1846 17.9408C16.6664 16.6339 16.8287 15.3589 17.6243 14.5302C18.1844 13.9352 18.7235 13.7917 19.1213 13.7917ZM19.2156 18.3127C19.4406 17.9302 19.5872 17.5583 19.6867 17.2449C19.7966 16.8889 19.6971 16.0974 19.493 15.7574C19.3517 15.5183 19.1946 15.3961 19.1266 15.3908H19.1213C19.0742 15.3908 18.9434 15.4439 18.7549 15.6405C18.2524 16.1664 18.5089 17.0058 18.645 17.3458C18.7706 17.6592 18.9643 17.9939 19.2156 18.3127ZM13.1332 20.5546C13.3949 19.5133 13.374 18.5199 12.7459 17.893C12.5731 17.7177 12.4161 17.6327 12.2748 17.6327C12.2538 17.6327 12.2329 17.6327 12.212 17.638C12.0131 17.6805 11.8142 17.893 11.7409 18.0683C11.4687 18.7217 11.5315 19.4071 11.9031 19.8533C12.1753 20.1827 12.5888 20.4217 13.1332 20.5546ZM24.2458 20.1933C25.1775 20.0764 25.8056 19.7524 26.0569 19.2424C26.2977 18.7642 26.1302 18.2914 26.0674 18.2064C26.0621 18.2064 25.9836 18.1799 25.8632 18.1799C25.7899 18.1799 25.6957 18.1905 25.591 18.2277C25.0885 18.3924 24.6436 18.9874 24.3348 19.8958C24.2877 19.9914 24.2615 20.0924 24.2458 20.1933ZM28.0145 23.9439C28.8468 23.7686 29.7838 23.4233 30.2758 22.8708C30.5113 22.6052 30.6108 22.3289 30.5899 21.9942C30.5689 21.6171 30.459 21.4099 30.2653 21.3833C30.2392 21.378 30.2077 21.378 30.1816 21.378C29.6477 21.378 28.7212 22.058 28.1977 23.4552C28.1454 23.588 28.0878 23.7527 28.0145 23.9439ZM9.67329 24.7302L9.58954 24.4433C9.57908 24.4008 9.56861 24.3636 9.56337 24.3211C9.56337 24.3158 9.39587 23.1842 8.60025 22.5627C8.42146 22.4245 8.20203 22.3516 7.97736 22.3555C7.93025 22.3555 7.88314 22.3608 7.83603 22.3661C7.57955 22.4033 7.3597 22.5255 7.21837 22.7167C7.07181 22.9133 7.05611 23.0833 7.16079 23.3064C7.44345 23.9174 8.50603 24.6186 9.67329 24.7302ZM19.1213 12.7292C18.556 12.7292 17.7081 12.9099 16.8758 13.7811C15.7818 14.9233 15.5358 16.6233 16.2163 18.3286C16.3367 18.6314 16.4885 18.9342 16.6664 19.2264C16.4309 19.3327 16.1744 19.4124 15.9022 19.4761C15.9284 17.7549 15.2427 16.6552 14.5831 15.9964C13.9131 15.3271 13.1123 14.9711 12.2748 14.9711C12.0811 14.9711 11.8874 14.9924 11.699 15.0296C10.4584 15.2846 9.66283 16.2302 9.32783 17.0324C8.94048 17.9674 8.86197 18.9555 9.06611 19.8586C8.7154 19.7471 8.349 19.6939 7.97736 19.6939C7.81509 19.6939 7.65283 19.7046 7.49579 19.7258C7.03168 19.7855 6.58392 19.9384 6.17861 20.1755C5.77331 20.4127 5.41858 20.7294 5.13509 21.1071C4.40228 22.0899 4.27666 23.2958 4.78962 24.4167C5.4858 25.9414 7.37017 27.1421 9.34876 27.3599L15.0804 47.0533C15.1942 47.4374 15.4265 47.7743 15.7431 48.0144C16.0597 48.2544 16.4439 48.385 16.8392 48.3867C17.0119 48.3867 17.1899 48.3602 17.3574 48.3124C17.8285 48.1743 18.2158 47.8555 18.4461 47.4199C18.6817 46.9842 18.734 46.4796 18.5927 46.0067L12.8924 26.4142C13.2798 26.1008 13.6148 25.713 13.8765 25.2774C14.2743 24.608 14.6198 23.9599 14.9024 23.3436C15.117 23.333 15.3421 23.3171 15.5672 23.2958C17.0642 23.1471 18.3676 22.6796 19.4511 21.8933C20.2572 22.3449 21.1313 22.6477 22.0474 22.7964C22.2515 23.2639 22.5132 23.7208 22.843 24.1617C23.335 24.8258 23.9527 25.4155 24.607 25.8617C23.424 29.538 21.1523 37.1296 20.3043 43.7277L20.2991 43.7489V43.7755L20.0426 46.8833C20.0026 47.3741 20.1558 47.861 20.4688 48.2374C20.7817 48.6138 21.2289 48.849 21.7124 48.8914C21.7752 48.8967 21.8223 48.8967 21.8694 48.8967C22.8116 48.8967 23.6124 48.1477 23.6962 47.1967L23.9474 44.1474C24.7954 37.5492 27.2242 29.6708 28.2239 26.6055C29.3598 26.4089 31.1185 25.9042 32.2282 24.6399C32.9244 23.8483 33.2646 22.8761 33.2018 21.8349C33.0867 19.8321 31.7624 18.9236 30.6631 18.7483C30.5113 18.7271 30.3543 18.7111 30.1973 18.7111C29.7524 18.7111 29.2708 18.8121 28.784 19.0246C28.8677 17.9833 28.5275 17.0111 28.0198 16.4321C27.5068 15.853 26.7164 15.5183 25.8475 15.5183C25.6224 15.5183 25.3921 15.5396 25.167 15.5874C24.3138 15.7627 22.7592 16.4321 21.8746 18.9396C21.8632 18.9336 21.8508 18.93 21.838 18.9289C21.995 18.5889 22.0997 18.2808 22.1782 18.0417C22.508 16.9739 22.3143 15.3749 21.7385 14.3921C21.414 13.8449 20.6864 12.8992 19.4302 12.7505C19.3255 12.7346 19.2208 12.7292 19.1213 12.7292Z" fill="#FFFF8D"/>
<path opacity="0.2" d="M18.8438 1.59375C28.3703 1.59375 36.1172 9.45625 36.1172 19.125C36.1172 23.0084 34.7248 26.9025 32.0867 30.3822C29.3858 33.9469 28.0301 37.5966 28.3651 40.3909C28.8048 44.0194 27.3967 44.9491 26.9256 45.1562H10.7619C10.2908 44.9491 8.88274 44.0247 9.32242 40.3909C9.65742 37.5966 8.30172 33.9469 5.60078 30.3822C2.96266 26.9025 1.57031 23.0084 1.57031 19.125C1.57031 9.45625 9.31719 1.59375 18.8438 1.59375ZM18.8438 0C8.43781 0 0 8.56375 0 19.125C0 23.7787 1.76398 27.9331 4.355 31.3544C6.73664 34.4994 8.05047 37.8037 7.76258 40.1997C7.06641 45.985 10.5106 46.75 10.5106 46.75H27.1769C27.1769 46.75 30.6211 45.985 29.9249 40.1997C29.637 37.8037 30.9509 34.4994 33.3325 31.3544C35.9235 27.9331 37.6875 23.7787 37.6875 19.125C37.6875 8.56375 29.2497 0 18.8438 0Z" fill="#424242"/>
<defs>
<radialGradient id="paint0_radial" cx="0" cy="0" r="1" gradientUnits="userSpaceOnUse" gradientTransform="translate(18.911 57.2422) rotate(90) scale(7.11663 12.4315)">
<stop stop-color="#1E88E5"/>
<stop offset="0.987" stop-color="#0D47A1"/>
</radialGradient>
<linearGradient id="paint1_linear" x1="18.8438" y1="44.2266" x2="18.8438" y2="58.0975" gradientUnits="userSpaceOnUse">
<stop stop-color="#90CAF9"/>
<stop offset="0.198" stop-color="#88C6F9"/>
<stop offset="0.508" stop-color="#72BCF7"/>
<stop offset="0.89" stop-color="#4DAAF6"/>
<stop offset="0.996" stop-color="#42A5F5"/>
</linearGradient>
<radialGradient id="paint2_radial" cx="0" cy="0" r="1" gradientUnits="userSpaceOnUse" gradientTransform="translate(19.04 0.597656) scale(47.7003 48.4123)">
<stop stop-color="#FFF59D"/>
<stop offset="0.148" stop-color="#FFF599"/>
<stop offset="0.311" stop-color="#FFF38B"/>
<stop offset="0.477" stop-color="#FFF176"/>
<stop offset="0.779" stop-color="#FFED51"/>
<stop offset="0.996" stop-color="#FFEB3B"/>
</radialGradient>
</defs>
</svg>
