<svg width="64" height="41" viewBox="0 0 64 41" fill="none" xmlns="http://www.w3.org/2000/svg">
<path d="M61.4444 40.4706H2.31094C1.03594 40.4706 0 39.4347 0 38.1597V2.32156C0 1.04125 1.03594 0 2.32156 0H61.4338C62.7141 0 63.7553 1.03594 63.7553 2.32156V38.1597C63.7553 39.44 62.7194 40.4706 61.4444 40.4706Z" fill="#2E7D32"/>
<path d="M61.5067 34.0053H2.24578C1.6512 34.0053 1.08097 33.7691 0.660536 33.3487C0.240103 32.9282 0.00390625 32.358 0.00390625 31.7634V2.32156C0.00390625 1.04125 1.03984 0 2.32547 0H61.4377C62.718 0 63.7592 1.03594 63.7592 2.32156V31.7581C63.7578 32.3546 63.5199 32.9262 63.0976 33.3475C62.6753 33.7687 62.1032 34.0053 61.5067 34.0053Z" fill="url(#paint0_linear)"/>
<path d="M18.9553 20.9689C18.9553 20.3154 18.7269 19.7629 18.27 19.3167C17.8131 18.8704 17.0375 18.4614 15.9484 18.1001C14.4344 17.6379 13.3294 17.0376 12.6388 16.2939C11.9428 15.5501 11.5975 14.6045 11.5975 13.4623C11.5975 12.2935 11.9375 11.3373 12.6175 10.5935C13.2975 9.84448 14.2325 9.40354 15.4172 9.26011V7.41667C15.4172 7.14573 15.6403 6.92261 15.9113 6.92261H16.5116C16.7825 6.92261 17.0056 7.14573 17.0056 7.41667V9.27073C18.2009 9.43542 19.1306 9.9348 19.7947 10.7742C20.3897 11.5285 20.7191 12.5273 20.7828 13.7757C20.7934 14.0201 20.5916 14.222 20.3472 14.222H19.2475C19.0138 14.222 18.8331 14.036 18.8119 13.8023C18.7534 12.9895 18.5197 12.3307 18.1106 11.826C17.6325 11.2364 16.9897 10.9389 16.1822 10.9389C15.3375 10.9389 14.6894 11.1567 14.2431 11.5976C13.7969 12.0332 13.5684 12.6495 13.5684 13.4304C13.5684 14.1582 13.8075 14.7373 14.2803 15.1676C14.7531 15.5979 15.5341 15.991 16.6178 16.3417C17.7016 16.6923 18.5463 17.0801 19.1572 17.5051C19.7628 17.9301 20.2144 18.4189 20.5013 18.982C20.7881 19.5451 20.9316 20.2039 20.9316 20.9582C20.9316 22.1589 20.5703 23.1257 19.8478 23.8589C19.1253 24.592 18.1159 25.0276 16.8144 25.1604V26.701C16.8144 26.972 16.5913 27.1951 16.3203 27.1951H15.7306C15.4597 27.1951 15.2366 26.972 15.2366 26.701V25.1604C13.9138 25.0382 12.8778 24.5707 12.1288 23.7473C11.4594 23.0142 11.0875 22.0473 11.0184 20.852C11.0025 20.6076 11.2097 20.4057 11.4541 20.4057H12.5644C12.7875 20.4057 12.9788 20.5704 12.9947 20.7935C13.0531 21.5957 13.3081 22.2279 13.7597 22.6901C14.2803 23.2214 15.0134 23.4923 15.9697 23.4923C16.8994 23.4923 17.6325 23.2692 18.1691 22.8176C18.6897 22.3554 18.9553 21.7392 18.9553 20.9689Z" fill="white"/>
<path d="M16.8141 25.6015L15.2363 25.1499L15.417 9.30273V8.77148L17.0054 9.26555L16.8141 25.134V25.6015Z" fill="white"/>
<path opacity="0.5" d="M42.9141 26.8342C48.342 26.8342 52.7422 22.434 52.7422 17.0061C52.7422 11.5782 48.342 7.17798 42.9141 7.17798C37.4861 7.17798 33.0859 11.5782 33.0859 17.0061C33.0859 22.434 37.4861 26.8342 42.9141 26.8342Z" fill="#2E7D32"/>
<path d="M54.4305 3.82031C54.8873 6.68906 57.1611 8.96281 60.0298 9.41969V24.5816C57.1611 25.0384 54.8873 27.3122 54.4305 30.1809H9.25828C8.67391 27.4663 6.46391 25.3731 3.72266 24.9375V9.77563C6.71359 9.30281 9.05109 6.85906 9.36984 3.82031H54.4305ZM55.408 2.75781H8.33391C8.33922 2.87469 8.34453 2.99156 8.34453 3.11375C8.34453 6.25344 5.79984 8.79813 2.66016 8.79813V25.9203C5.67766 25.9203 8.14797 28.2738 8.33391 31.2488H55.408C55.408 28.1091 57.9527 25.5644 61.0923 25.5644V8.44219C57.9527 8.44219 55.408 5.8975 55.408 2.75781Z" fill="#2E7D32"/>
<path d="M26.0312 0.00610352H37.7241V40.4767H26.0312V0.00610352Z" fill="#FFECB3"/>
<path opacity="0.5" d="M26.0312 34.0061H37.7241V40.4767H26.0312V34.0061Z" fill="#FFB74D"/>
<path opacity="0.2" d="M61.4338 0.537355C62.4219 0.537355 63.2241 1.33954 63.2241 2.32767V38.1658C63.2241 39.1486 62.4272 39.9455 61.4444 39.9455H2.31094C1.83894 39.9455 1.38626 39.758 1.05251 39.4242C0.718752 39.0905 0.53125 38.6378 0.53125 38.1658V2.32235C0.53125 1.33423 1.33344 0.532041 2.32156 0.532041H61.4338V0.537355ZM61.4338 0.00610352H2.32156C1.04125 0.00610352 0 1.04204 0 2.32767V38.1658C0 39.4408 1.03594 40.4767 2.31094 40.4767H61.4391C62.7141 40.4767 63.75 39.4408 63.75 38.1658V2.32235C63.7553 1.04204 62.7141 0.00610352 61.4338 0.00610352Z" fill="#424242"/>
<defs>
<linearGradient id="paint0_linear" x1="31.8762" y1="34.0027" x2="31.8762" y2="0.164158" gradientUnits="userSpaceOnUse">
<stop stop-color="#43A047"/>
<stop offset="0.999" stop-color="#66BB6A"/>
</linearGradient>
</defs>
</svg>
