<svg width="210" height="90" viewBox="0 0 210 90" fill="none" xmlns="http://www.w3.org/2000/svg">
<path d="M103.494 50.0756L100.533 52.7649C100.572 52.8074 100.611 52.849 100.652 52.8898L103.494 50.0756ZM201.825 68.9409C203.833 68.0188 204.713 65.6438 203.79 63.6364L188.763 30.9229C187.841 28.9154 185.466 28.0356 183.458 28.9578C181.451 29.8799 180.571 32.2549 181.493 34.2623L194.851 63.341L165.772 76.6988C163.765 77.621 162.885 79.9959 163.807 82.0034C164.73 84.0108 167.104 84.8907 169.112 83.9685L201.825 68.9409ZM9.06631 38.1637C27.2536 25.9241 40.4914 19.6899 53.6307 20.9793C66.7492 22.2667 80.9434 31.1952 100.533 52.7649L106.455 47.3863C86.6162 25.5423 70.6712 14.6132 54.412 13.0176C38.1737 11.4241 22.7954 19.2815 4.59978 31.5266L9.06631 38.1637ZM100.652 52.8898C110.373 62.7091 117.909 67.6747 124.947 69.3539C132.114 71.0638 138.099 69.1807 143.864 67.2159C149.701 65.2269 155.728 62.9817 164.118 62.5208C172.488 62.0611 183.449 63.3828 198.766 69.057L201.545 61.5552C185.422 55.5822 173.357 54.0013 163.679 54.5329C154.02 55.0634 146.976 57.7036 141.284 59.6435C135.52 61.6076 131.518 62.6969 126.804 61.5723C121.961 60.417 115.722 56.7412 106.337 47.2615L100.652 52.8898Z" fill="#FF8D38"/>
</svg>
