<svg width="88" height="93" viewBox="0 0 88 93" fill="none" xmlns="http://www.w3.org/2000/svg">
<path d="M41.273 92.7784C22.5741 92.7784 2.38281 81.051 2.38281 55.3126C2.38281 29.5742 22.5741 17.8469 41.273 17.8469C51.6588 17.8469 61.2457 21.2611 68.353 27.4941C76.0557 34.3375 80.1482 43.9847 80.1482 55.3126C80.1482 66.6405 76.0557 76.2274 68.353 83.0634C61.2457 89.2964 51.591 92.7784 41.273 92.7784Z" fill="url(#paint0_radial)"/>
<path d="M73.3716 33.0412C77.0496 39.1461 78.9338 46.1704 78.8057 53.3003C78.8057 64.6056 74.7132 74.2151 67.0105 81.0511C59.9032 87.2841 50.256 90.7661 39.9305 90.7661C27.8263 90.7661 15.1116 85.8445 7.64258 75.3909C14.8554 87.2313 28.4142 92.7784 41.2721 92.7784C51.59 92.7784 61.2448 89.2964 68.352 83.0634C76.0547 76.2199 80.1472 66.6406 80.1472 55.3127C80.1472 46.7734 77.8184 39.1838 73.3716 33.0412Z" fill="#EB8F00"/>
<path opacity="0.8" d="M18.8126 65.1176C26.0969 65.1176 32.0021 59.5499 32.0021 52.6817C32.0021 45.8136 26.0969 40.2459 18.8126 40.2459C11.5282 40.2459 5.62305 45.8136 5.62305 52.6817C5.62305 59.5499 11.5282 65.1176 18.8126 65.1176Z" fill="url(#paint1_radial)"/>
<path opacity="0.8" d="M64.338 65.1172C71.6223 65.1172 77.5275 59.5495 77.5275 52.6814C77.5275 45.8133 71.6223 40.2455 64.338 40.2455C57.0536 40.2455 51.1484 45.8133 51.1484 52.6814C51.1484 59.5495 57.0536 65.1172 64.338 65.1172Z" fill="url(#paint2_radial)"/>
<path d="M11.4242 13.7922C14.338 13.7922 16.7001 12.1051 16.7001 10.0238C16.7001 7.94256 14.338 6.25537 11.4242 6.25537C8.5105 6.25537 6.14844 7.94256 6.14844 10.0238C6.14844 12.1051 8.5105 13.7922 11.4242 13.7922Z" fill="#FF00A2"/>
<path d="M33.6202 20.7788C34.8564 19.5426 34.5462 17.2282 32.9273 15.6094C31.3085 13.9906 28.994 13.6804 27.7578 14.9166C26.5217 16.1528 26.8319 18.4673 28.4507 20.0861C30.0696 21.7049 32.3841 22.015 33.6202 20.7788Z" fill="#FD3B3B"/>
<path d="M49.7864 14.7694C52.5514 12.6293 53.9874 9.85364 52.9938 8.56988C52.0002 7.28612 48.9532 7.98036 46.1881 10.1205C43.4231 12.2606 41.9871 15.0362 42.9808 16.32C43.9744 17.6038 47.0214 16.9095 49.7864 14.7694Z" fill="#00EEFF"/>
<path d="M12.9032 64.5194C13.9486 63.9159 13.6994 61.5271 12.3465 59.1839C10.9937 56.8408 9.04959 55.4306 8.00419 56.0342C6.95879 56.6377 7.208 59.0265 8.56081 61.3696C9.91362 63.7128 11.8578 65.123 12.9032 64.5194Z" fill="#0048FF"/>
<path d="M66.0676 86.1468C67.5245 86.1468 68.7055 84.2909 68.7055 82.0016C68.7055 79.7122 67.5245 77.8563 66.0676 77.8563C64.6107 77.8563 63.4297 79.7122 63.4297 82.0016C63.4297 84.2909 64.6107 86.1468 66.0676 86.1468Z" fill="#F63BBE"/>
<path d="M81.1671 42.9825C83.3795 41.4251 84.7846 39.6107 84.3054 38.93C83.8262 38.2492 81.6442 38.9599 79.4317 40.5173C77.2193 42.0747 75.8143 43.8891 76.2935 44.5698C76.7727 45.2506 78.9547 44.5399 81.1671 42.9825Z" fill="#00CC00"/>
<path d="M10.2809 89.9427C11.151 89.3719 10.7457 87.2163 9.37564 85.1281C8.00559 83.04 6.18961 81.8099 5.31954 82.3808C4.44947 82.9517 4.85479 85.1072 6.22484 87.1954C7.59489 89.2836 9.41087 90.5136 10.2809 89.9427Z" fill="#0048FF"/>
<path d="M4.7771 75.213C7.26836 75.0365 9.22831 74.0519 9.15478 73.0139C9.08124 71.9759 7.00207 71.2775 4.51082 71.454C2.01956 71.6304 0.0596098 72.615 0.133142 73.653C0.206675 74.691 2.28585 75.3894 4.7771 75.213Z" fill="#7ACDED"/>
<path d="M11.5161 65.3416C14.5065 65.1429 16.8927 64.4095 16.8458 63.7034C16.7989 62.9973 14.3367 62.586 11.3462 62.7847C8.35584 62.9834 5.96967 63.7168 6.01658 64.4229C6.06349 65.1289 8.52572 65.5403 11.5161 65.3416Z" fill="#FF82B2"/>
<path d="M82.9511 57.6574C82.3105 55.4416 80.7805 53.5875 78.7304 52.5324C75.2635 50.6482 70.9222 51.937 69.0456 55.4039C69.0305 55.4265 69.023 55.4491 69.0079 55.4718C68.2542 56.8921 68.0928 58.5529 68.5587 60.0918C69.0246 61.6308 70.0801 62.9231 71.4951 63.6869C72.6633 64.3426 74.035 64.5311 75.3389 64.2145C76.6804 63.9131 77.8109 63.0312 78.429 61.8027C79.0998 60.3858 79.0395 58.7277 78.2782 57.356C77.9747 56.7632 77.5244 56.258 76.9703 55.8886C76.4162 55.5192 75.7767 55.2978 75.1127 55.2457C74.3365 55.2306 73.7034 55.8486 73.6883 56.6249C73.6807 57.3258 74.1932 57.9288 74.8866 58.0343C75.271 58.0569 75.6177 58.2905 75.7911 58.6372C76.0549 59.1724 76.1076 59.7979 75.9418 60.3707C75.8163 60.6203 75.6357 60.8382 75.4138 61.0079C75.1919 61.1776 74.9343 61.2948 74.6605 61.3505C74.0501 61.5088 73.4019 61.4259 72.8517 61.1244C72.098 60.725 71.5327 60.0466 71.2689 59.2402C71.0428 58.4111 71.1257 57.5293 71.4951 56.753C71.7556 56.245 72.1173 55.7957 72.558 55.4328C72.9987 55.0698 73.509 54.801 74.0576 54.6427C75.1655 54.3262 76.3413 54.4317 77.3738 54.9442C78.7229 55.6828 79.7253 56.9339 80.1624 58.4111C80.6222 59.8959 80.4564 61.5013 79.7102 62.8579C78.2782 65.5712 75.4896 67.38 71.4197 67.38C69.0833 67.38 55.1777 67.0032 55.1777 67.0032L55.3435 70.4701L71.2689 70.244C76.0172 70.244 79.9363 68.3598 82.1974 64.1392C83.3882 62.1946 83.6596 59.8205 82.9511 57.6574Z" fill="url(#paint3_linear)"/>
<path d="M46.098 68.8125C46.5577 69.3024 46.9119 69.8752 47.1531 70.5008L55.7828 70.448C55.7828 69.3175 55.6321 68.187 55.6321 66.9811C53.371 66.9057 48.7132 66.8303 47.2662 66.7776C47.0582 67.5553 46.6381 68.2599 46.0527 68.8125H46.098Z" fill="#7F0099"/>
<path d="M72.3232 40.0212L74.9611 40.3981L75.6394 37.7602L76.0163 36.2528L60.8672 34.1425C67.7257 39.3429 71.871 40.0212 72.3232 40.0212Z" fill="#FF4545"/>
<path d="M84.456 2.78876L78.3511 6.25572L76.8438 7.08477L83.1747 7.9892C83.6269 6.10498 84.456 2.78876 84.456 2.78876Z" fill="#FF4545"/>
<path d="M70.9646 10.4019L64.709 13.9442L81.064 16.2807L82.1192 11.9847L70.9646 10.4019Z" fill="#FF4545"/>
<path d="M53.1027 20.4994H53.0273L79.0295 24.2678L80.0093 20.2733L58.8307 17.2585L53.1027 20.4994Z" fill="#FF4545"/>
<path d="M55.2881 29.1668L76.9943 32.2569L78.0494 28.187L51.8965 24.4185C52.198 25.2476 53.1024 26.9057 55.2881 29.1668Z" fill="#FF4545"/>
<path d="M58.832 17.2596L80.0106 20.2744L81.0658 16.2798L64.7108 13.9434L58.832 17.2596Z" fill="#FF9C9C"/>
<path d="M82.7255 9.6476C82.7255 9.6476 82.9516 8.59244 83.1023 8.06485L76.7713 7.16043L70.8926 10.4767L82.0471 12.0594L82.7255 9.6476Z" fill="#FF9C9C"/>
<path d="M50.8418 21.7069L51.6709 24.1187C51.701 24.2543 51.7538 24.3825 51.8216 24.4955L77.9745 28.264L78.9543 24.2694L52.9521 20.5764L50.8418 21.7069Z" fill="#FF9C9C"/>
<path d="M60.5649 33.9164C60.6402 33.9918 60.791 34.0672 60.8663 34.1425L76.0154 36.3282L76.9952 32.3337L55.2891 29.2436C56.9396 30.9167 58.7033 32.4769 60.5649 33.9164Z" fill="#FF9C9C"/>
<path d="M84.3814 7.23545C86.3794 7.23545 87.9991 5.61576 87.9991 3.61776C87.9991 1.61976 86.3794 6.10352e-05 84.3814 6.10352e-05C82.3834 6.10352e-05 80.7637 1.61976 80.7637 3.61776C80.7637 5.61576 82.3834 7.23545 84.3814 7.23545Z" fill="#C93737"/>
<path d="M47.4827 67.9305C48.5913 66.972 49.2855 65.6214 49.4197 64.162C49.6307 62.6924 49.1936 61.2076 48.2138 60.0921C46.4577 57.7859 41.5738 58.3587 41.5738 58.3587C40.2624 58.4114 38.7475 59.037 38.9359 60.5443C39.0572 60.9691 39.2906 61.3535 39.6115 61.6571C39.9324 61.9608 40.329 62.1725 40.7598 62.2703C42.6893 62.73 45.4402 62.2703 45.5156 64.2299C45.606 66.4306 42.2295 65.5262 41.9582 67.8551C41.6869 70.184 45.5156 69.875 45.5156 71.4803C45.5156 72.7088 44.2569 72.9199 42.9304 73.1987C41.7924 73.4324 39.6067 73.7866 39.4333 75.0905C39.26 76.3944 40.0061 77.9997 43.0812 77.5324C47.9198 76.7788 49.5478 74.1484 49.5478 72.5204C49.578 70.7568 48.8243 69.0761 47.4827 67.9305Z" fill="#422B0D"/>
<path d="M30.9171 48.0339L30.804 47.8907L30.5025 47.5063L30.1182 47.0918C29.9674 46.926 29.7865 46.7451 29.6057 46.5642C29.4172 46.3833 29.2213 46.21 29.0102 46.0517C28.8218 45.9085 28.6259 45.7804 28.4148 45.6673C28.2716 45.5844 28.1134 45.5241 27.9475 45.494C27.8976 45.4865 27.8468 45.4865 27.7968 45.494H27.7365H27.8722H27.4803C27.3823 45.494 27.4803 45.494 27.4803 45.494H27.533C27.5933 45.494 27.533 45.494 27.533 45.494C27.5059 45.4864 27.4772 45.4864 27.4501 45.494C27.2843 45.5241 27.126 45.5844 26.9828 45.6673C26.7718 45.7804 26.5758 45.9085 26.3874 46.0517C26.1915 46.2025 25.988 46.3833 25.792 46.5642C25.4227 46.926 25.0986 47.3179 24.8725 47.5516L24.5107 47.9812L24.3449 48.1696C23.8491 48.7184 23.1687 49.0654 22.4333 49.1447C21.698 49.2239 20.9593 49.0297 20.3579 48.5992C19.5665 48.049 19.1596 47.0918 19.3103 46.1346C19.3103 46.1346 19.3631 45.8482 19.4987 45.3809C19.7097 44.6574 20.0112 43.964 20.3881 43.3158C20.9759 42.2456 21.7749 41.3035 22.732 40.5498C23.3877 40.0524 24.1113 39.6529 24.8876 39.3741C25.0986 39.2912 25.3247 39.2233 25.5433 39.1706C25.792 39.0952 26.0407 39.0424 26.297 39.0048L26.7341 38.9445H28.4073C28.6409 38.9445 28.8821 39.0048 29.1158 39.0424C30.3863 39.2723 31.5845 39.7992 32.6129 40.58C33.5851 41.3186 34.4066 42.2456 35.0096 43.3083C35.2282 43.6776 35.4241 44.0695 35.5824 44.469C35.7256 44.8006 35.8311 45.1548 35.9216 45.4186C36.012 45.6824 36.0045 45.8105 36.0346 45.9387V46.112C36.1318 46.8115 35.9475 47.521 35.5222 48.0847C35.0969 48.6485 34.4653 49.0206 33.766 49.1192C33.7359 49.1268 33.7057 49.1268 33.6831 49.1268C32.6355 49.285 31.5728 48.8705 30.9171 48.0339Z" fill="#422B0D"/>
<path d="M58.9104 48.0328L58.7973 47.8896L58.4958 47.5052L58.1567 47.0907C58.0059 46.9249 57.8251 46.744 57.6442 46.5631C57.4557 46.3822 57.2598 46.2089 57.0488 46.0506C56.8603 45.9074 56.6644 45.7793 56.4533 45.6662C56.3101 45.5833 56.1519 45.523 55.9936 45.4929C55.9436 45.4853 55.8928 45.4853 55.8429 45.4929H55.7826H55.8956H55.5037C55.3982 45.4929 55.5037 45.4929 55.5037 45.4929H55.5565C55.6168 45.4929 55.5565 45.4929 55.5565 45.4929H55.4736C55.3153 45.523 55.157 45.5833 55.0138 45.6662C54.8028 45.7793 54.6068 45.9074 54.4184 46.0506C54.2074 46.2089 54.0114 46.3822 53.823 46.5631C53.4461 46.9249 53.1296 47.3168 52.8959 47.5504L52.5342 47.98L52.3684 48.1685C51.8725 48.7172 51.1921 49.0643 50.4568 49.1435C49.7215 49.2228 48.9827 49.0286 48.3814 48.5981C47.59 48.0479 47.183 47.0907 47.3337 46.1335C47.3337 46.1335 47.3865 45.8471 47.5297 45.3798C47.7181 44.6487 47.997 43.9403 48.3587 43.277C48.9617 42.2143 49.7832 41.2873 50.7555 40.5487C51.4112 40.0512 52.1423 39.6518 52.9186 39.3729C53.1296 39.29 53.3482 39.2222 53.5667 39.1694C53.8154 39.0941 54.0642 39.0413 54.3204 39.0036L54.7575 38.9433H56.4307C56.6719 38.9433 56.9056 39.0036 57.1392 39.0413C58.4129 39.2599 59.6113 39.7799 60.6438 40.5487C61.6161 41.2873 62.4301 42.2143 63.0406 43.277C63.2591 43.6463 63.4476 44.0383 63.6058 44.4377C63.7415 44.7467 63.8545 45.0633 63.945 45.3874C63.9977 45.5607 64.0354 45.734 64.058 45.9074V46.0807C64.1079 46.4252 64.0893 46.7762 64.0034 47.1135C63.9175 47.4508 63.7659 47.7678 63.5572 48.0464C63.3486 48.3251 63.0871 48.5598 62.7876 48.7372C62.4882 48.9147 62.1566 49.0313 61.8121 49.0804C61.7819 49.088 61.7518 49.088 61.7141 49.0955C60.6589 49.2613 59.5887 48.8618 58.9104 48.0328Z" fill="#422B0D"/>
<defs>
<radialGradient id="paint0_radial" cx="0" cy="0" r="1" gradientUnits="userSpaceOnUse" gradientTransform="translate(41.2655 55.3126) scale(38.181)">
<stop offset="0.5" stop-color="#FDE030"/>
<stop offset="0.92" stop-color="#F7C02B"/>
<stop offset="1" stop-color="#F4A223"/>
</radialGradient>
<radialGradient id="paint1_radial" cx="0" cy="0" r="1" gradientUnits="userSpaceOnUse" gradientTransform="translate(18.8128 55.3339) scale(14.3557 12.8908)">
<stop stop-color="#ED7770"/>
<stop offset="0.9" stop-color="#ED7770" stop-opacity="0"/>
</radialGradient>
<radialGradient id="paint2_radial" cx="0" cy="0" r="1" gradientUnits="userSpaceOnUse" gradientTransform="translate(88.6971 882.483) scale(14.6441)">
<stop stop-color="#ED7770"/>
<stop offset="0.9" stop-color="#ED7770" stop-opacity="0"/>
</radialGradient>
<linearGradient id="paint3_linear" x1="55.2833" y1="61.0686" x2="83.3129" y2="61.0686" gradientUnits="userSpaceOnUse">
<stop stop-color="#004054"/>
<stop offset="0.99" stop-color="#45A4FF"/>
</linearGradient>
</defs>
</svg>
